<mxfile host="app.diagrams.net" modified="2023-06-02T15:30:36.582Z" agent="Mozilla/5.0 (X11; Linux x86_64) AppleWebKit/537.36 (KHTML, like Gecko) Chrome/113.0.0.0 Safari/537.36" etag="0y_2cSRO68bB5Sv2Tu5b" version="21.2.9" type="github">
  <diagram id="I_fSzTSYJhP3WbuMLIgA" name="Page-1">
    <mxGraphModel dx="3420" dy="1258" grid="1" gridSize="10" guides="1" tooltips="1" connect="1" arrows="1" fold="1" page="1" pageScale="1" pageWidth="827" pageHeight="1169" math="0" shadow="0">
      <root>
        <mxCell id="0" />
        <mxCell id="1" parent="0" />
        <mxCell id="X8UQ3ca7zE-rwW-CTGad-8" value="" style="rounded=1;whiteSpace=wrap;html=1;fillColor=none;dashed=1;fontColor=#333333;strokeColor=#666666;" parent="1" vertex="1">
          <mxGeometry x="1530" y="260" width="670" height="500" as="geometry" />
        </mxCell>
        <mxCell id="Rma2AlwZcZ3yD9oSs5zd-29" value="" style="rounded=1;whiteSpace=wrap;html=1;fillColor=none;dashed=1;strokeWidth=2;" parent="1" vertex="1">
          <mxGeometry x="1250" y="200" width="970" height="1160" as="geometry" />
        </mxCell>
        <mxCell id="iSJP6n-plgs5U3rNxnB9-100" value="" style="rounded=1;whiteSpace=wrap;html=1;fillColor=none;" parent="1" vertex="1">
          <mxGeometry x="1948" y="836.88" width="240" height="382" as="geometry" />
        </mxCell>
        <mxCell id="iSJP6n-plgs5U3rNxnB9-62" value="" style="rounded=1;whiteSpace=wrap;html=1;rotation=-90;fillColor=none;" parent="1" vertex="1">
          <mxGeometry x="1300.94" y="574.94" width="165.93" height="235.19" as="geometry" />
        </mxCell>
        <mxCell id="iSJP6n-plgs5U3rNxnB9-25" value="" style="rounded=1;whiteSpace=wrap;html=1;fillColor=none;" parent="1" vertex="1">
          <mxGeometry x="-67" y="1330" width="850" height="370" as="geometry" />
        </mxCell>
        <mxCell id="iSJP6n-plgs5U3rNxnB9-29" value="&lt;span style=&quot;color: rgba(0, 0, 0, 0); font-family: monospace; font-size: 0px; text-align: start;&quot;&gt;%3CmxGraphModel%3E%3Croot%3E%3CmxCell%20id%3D%220%22%2F%3E%3CmxCell%20id%3D%221%22%20parent%3D%220%22%2F%3E%3CmxCell%20id%3D%222%22%20value%3D%22nii.gz.%20files%22%20style%3D%22text%3Bhtml%3D1%3BstrokeColor%3Dnone%3BfillColor%3Dnone%3Balign%3Dcenter%3BverticalAlign%3Dmiddle%3BwhiteSpace%3Dwrap%3Brounded%3D0%3B%22%20vertex%3D%221%22%20parent%3D%221%22%3E%3CmxGeometry%20x%3D%22250%22%20y%3D%22310%22%20width%3D%2260%22%20height%3D%2230%22%20as%3D%22geometry%22%2F%3E%3C%2FmxCell%3E%3C%2Froot%3E%3C%2FmxGraphModel%3E&lt;/span&gt;" style="rounded=1;whiteSpace=wrap;html=1;dashed=1;fillColor=none;" parent="1" vertex="1">
          <mxGeometry x="76" y="265" width="604" height="245" as="geometry" />
        </mxCell>
        <mxCell id="iSJP6n-plgs5U3rNxnB9-19" value="4DSegment" style="whiteSpace=wrap;html=1;aspect=fixed;" parent="1" vertex="1">
          <mxGeometry x="394" y="290" width="80" height="80" as="geometry" />
        </mxCell>
        <mxCell id="iSJP6n-plgs5U3rNxnB9-23" value="CCITK" style="whiteSpace=wrap;html=1;aspect=fixed;" parent="1" vertex="1">
          <mxGeometry x="394" y="390" width="80" height="80" as="geometry" />
        </mxCell>
        <mxCell id="iSJP6n-plgs5U3rNxnB9-28" value="Authentication" style="rounded=0;whiteSpace=wrap;html=1;fillColor=none;" parent="1" vertex="1">
          <mxGeometry x="1321.8799999999999" y="741.88" width="113.75" height="20" as="geometry" />
        </mxCell>
        <mxCell id="iSJP6n-plgs5U3rNxnB9-32" value="nii.gz. files" style="text;html=1;strokeColor=none;fillColor=none;align=center;verticalAlign=middle;whiteSpace=wrap;rounded=0;rotation=36;" parent="1" vertex="1">
          <mxGeometry x="250" y="377.5" width="60" height="20" as="geometry" />
        </mxCell>
        <mxCell id="iSJP6n-plgs5U3rNxnB9-34" value="User" style="text;html=1;strokeColor=none;fillColor=none;align=center;verticalAlign=middle;whiteSpace=wrap;rounded=0;" parent="1" vertex="1">
          <mxGeometry x="1352.3" y="870" width="50" height="10" as="geometry" />
        </mxCell>
        <mxCell id="iSJP6n-plgs5U3rNxnB9-38" value="" style="verticalLabelPosition=bottom;html=1;verticalAlign=top;align=center;strokeColor=none;fillColor=#00BEF2;shape=mxgraph.azure.user;" parent="1" vertex="1">
          <mxGeometry x="1360.75" y="832.88" width="30" height="30" as="geometry" />
        </mxCell>
        <mxCell id="iSJP6n-plgs5U3rNxnB9-47" value="" style="sketch=0;outlineConnect=0;fontColor=#232F3E;gradientColor=none;fillColor=#000000;strokeColor=none;dashed=0;verticalLabelPosition=bottom;verticalAlign=top;align=center;html=1;fontSize=12;fontStyle=0;aspect=fixed;pointerEvents=1;shape=mxgraph.aws4.door_lock;" parent="1" vertex="1">
          <mxGeometry x="1332.75" y="701.88" width="28" height="28" as="geometry" />
        </mxCell>
        <mxCell id="iSJP6n-plgs5U3rNxnB9-64" value="CardioNifty" style="whiteSpace=wrap;html=1;aspect=fixed;" parent="1" vertex="1">
          <mxGeometry x="150" y="290" width="80" height="80" as="geometry" />
        </mxCell>
        <mxCell id="iSJP6n-plgs5U3rNxnB9-65" value="dcm2niix" style="whiteSpace=wrap;html=1;aspect=fixed;" parent="1" vertex="1">
          <mxGeometry x="150" y="390" width="80" height="80" as="geometry" />
        </mxCell>
        <mxCell id="iSJP6n-plgs5U3rNxnB9-66" value="App API" style="rounded=1;whiteSpace=wrap;html=1;" parent="1" vertex="1">
          <mxGeometry x="354" y="308.75" width="40" height="42.5" as="geometry" />
        </mxCell>
        <mxCell id="iSJP6n-plgs5U3rNxnB9-71" value="DICOM Input" style="text;html=1;strokeColor=none;fillColor=none;align=center;verticalAlign=middle;whiteSpace=wrap;rounded=0;" parent="1" vertex="1">
          <mxGeometry x="1340" y="520" width="77.5" height="30" as="geometry" />
        </mxCell>
        <mxCell id="iSJP6n-plgs5U3rNxnB9-83" value="" style="endArrow=classic;startArrow=classic;html=1;rounded=0;entryX=0;entryY=0.5;entryDx=0;entryDy=0;exitX=0.51;exitY=0.016;exitDx=0;exitDy=0;exitPerimeter=0;" parent="1" source="iSJP6n-plgs5U3rNxnB9-28" edge="1">
          <mxGeometry width="50" height="50" relative="1" as="geometry">
            <mxPoint x="1379.7599999999998" y="740" as="sourcePoint" />
            <mxPoint x="1379.58" y="670" as="targetPoint" />
          </mxGeometry>
        </mxCell>
        <mxCell id="iSJP6n-plgs5U3rNxnB9-113" value="" style="endArrow=classic;html=1;rounded=0;dashed=1;" parent="1" edge="1">
          <mxGeometry width="50" height="50" relative="1" as="geometry">
            <mxPoint x="630" y="660" as="sourcePoint" />
            <mxPoint x="772" y="660" as="targetPoint" />
          </mxGeometry>
        </mxCell>
        <mxCell id="AIP2rtYdTXtsvyKJKe4--31" value="&lt;b&gt;&lt;font style=&quot;font-size: 14px;&quot;&gt;2&lt;/font&gt;&lt;/b&gt;" style="text;html=1;strokeColor=none;fillColor=#dae8fc;align=center;verticalAlign=middle;whiteSpace=wrap;rounded=0;" parent="1" vertex="1">
          <mxGeometry x="1332.75" y="560" width="37.25" height="30" as="geometry" />
        </mxCell>
        <mxCell id="AIP2rtYdTXtsvyKJKe4--34" value="&lt;b&gt;&lt;font style=&quot;font-size: 14px;&quot;&gt;4&lt;/font&gt;&lt;/b&gt;" style="text;html=1;strokeColor=none;fillColor=#dae8fc;align=center;verticalAlign=middle;whiteSpace=wrap;rounded=0;" parent="1" vertex="1">
          <mxGeometry x="1920" y="270" width="40.25" height="30" as="geometry" />
        </mxCell>
        <mxCell id="iSJP6n-plgs5U3rNxnB9-90" value="" style="rounded=1;whiteSpace=wrap;html=1;fillColor=none;" parent="1" vertex="1">
          <mxGeometry x="620" y="854" width="242.5" height="350" as="geometry" />
        </mxCell>
        <mxCell id="iSJP6n-plgs5U3rNxnB9-91" value="&lt;b&gt;Actors&lt;/b&gt;" style="text;html=1;strokeColor=none;fillColor=none;align=center;verticalAlign=middle;whiteSpace=wrap;rounded=0;" parent="1" vertex="1">
          <mxGeometry x="704" y="820" width="55" height="30" as="geometry" />
        </mxCell>
        <mxCell id="AIP2rtYdTXtsvyKJKe4--21" value="" style="group" parent="1" vertex="1" connectable="0">
          <mxGeometry x="662.5" y="1114" width="174" height="70" as="geometry" />
        </mxCell>
        <mxCell id="iSJP6n-plgs5U3rNxnB9-95" value="" style="sketch=0;pointerEvents=1;shadow=0;dashed=0;html=1;strokeColor=none;labelPosition=center;verticalLabelPosition=bottom;verticalAlign=top;outlineConnect=0;align=center;shape=mxgraph.office.users.user;fillColor=#2072B8;" parent="AIP2rtYdTXtsvyKJKe4--21" vertex="1">
          <mxGeometry width="66.5" height="70" as="geometry" />
        </mxCell>
        <mxCell id="iSJP6n-plgs5U3rNxnB9-99" value="Platform User" style="text;html=1;strokeColor=none;fillColor=none;align=center;verticalAlign=middle;whiteSpace=wrap;rounded=0;" parent="AIP2rtYdTXtsvyKJKe4--21" vertex="1">
          <mxGeometry x="84" y="20" width="90" height="30" as="geometry" />
        </mxCell>
        <mxCell id="AIP2rtYdTXtsvyKJKe4--22" value="" style="group" parent="1" vertex="1" connectable="0">
          <mxGeometry x="660" y="994" width="179" height="82" as="geometry" />
        </mxCell>
        <mxCell id="iSJP6n-plgs5U3rNxnB9-96" value="" style="shape=mxgraph.cisco.people.androgenous_person;html=1;pointerEvents=1;dashed=0;fillColor=#036897;strokeColor=#ffffff;strokeWidth=2;verticalLabelPosition=bottom;verticalAlign=top;align=center;outlineConnect=0;" parent="AIP2rtYdTXtsvyKJKe4--22" vertex="1">
          <mxGeometry width="69" height="82" as="geometry" />
        </mxCell>
        <mxCell id="iSJP6n-plgs5U3rNxnB9-97" value="Application Developers" style="text;html=1;strokeColor=none;fillColor=none;align=center;verticalAlign=middle;whiteSpace=wrap;rounded=0;" parent="AIP2rtYdTXtsvyKJKe4--22" vertex="1">
          <mxGeometry x="84" y="33" width="95" height="30" as="geometry" />
        </mxCell>
        <mxCell id="AIP2rtYdTXtsvyKJKe4--23" value="" style="group" parent="1" vertex="1" connectable="0">
          <mxGeometry x="657.5" y="874" width="174" height="82" as="geometry" />
        </mxCell>
        <mxCell id="iSJP6n-plgs5U3rNxnB9-93" value="" style="shape=mxgraph.cisco.people.androgenous_person;html=1;pointerEvents=1;dashed=0;fillColor=#036897;strokeColor=#ffffff;strokeWidth=2;verticalLabelPosition=bottom;verticalAlign=top;align=center;outlineConnect=0;" parent="AIP2rtYdTXtsvyKJKe4--23" vertex="1">
          <mxGeometry width="69" height="82" as="geometry" />
        </mxCell>
        <mxCell id="iSJP6n-plgs5U3rNxnB9-98" value="Platform Developers" style="text;html=1;strokeColor=none;fillColor=none;align=center;verticalAlign=middle;whiteSpace=wrap;rounded=0;" parent="AIP2rtYdTXtsvyKJKe4--23" vertex="1">
          <mxGeometry x="79" y="28" width="95" height="30" as="geometry" />
        </mxCell>
        <mxCell id="AIP2rtYdTXtsvyKJKe4--29" value="&lt;b&gt;&lt;font style=&quot;font-size: 14px;&quot;&gt;1&lt;/font&gt;&lt;/b&gt;" style="text;html=1;strokeColor=none;fillColor=#dae8fc;align=center;verticalAlign=middle;whiteSpace=wrap;rounded=0;" parent="1" vertex="1">
          <mxGeometry x="663.88" y="820" width="40.25" height="30" as="geometry" />
        </mxCell>
        <mxCell id="THO80avu8P2htPNswEXX-1" value="App API" style="rounded=1;whiteSpace=wrap;html=1;" parent="1" vertex="1">
          <mxGeometry x="354" y="408.75" width="40" height="42.5" as="geometry" />
        </mxCell>
        <mxCell id="THO80avu8P2htPNswEXX-2" value="App API" style="rounded=1;whiteSpace=wrap;html=1;" parent="1" vertex="1">
          <mxGeometry x="110" y="308.75" width="40" height="42.5" as="geometry" />
        </mxCell>
        <mxCell id="THO80avu8P2htPNswEXX-3" value="App API" style="rounded=1;whiteSpace=wrap;html=1;" parent="1" vertex="1">
          <mxGeometry x="110" y="408.75" width="40" height="42.5" as="geometry" />
        </mxCell>
        <mxCell id="THO80avu8P2htPNswEXX-6" value="" style="endArrow=classic;html=1;rounded=0;exitX=1;exitY=0.5;exitDx=0;exitDy=0;startArrow=none;" parent="1" source="iSJP6n-plgs5U3rNxnB9-26" edge="1">
          <mxGeometry width="50" height="50" relative="1" as="geometry">
            <mxPoint x="516" y="387.26000000000005" as="sourcePoint" />
            <mxPoint x="640" y="387.26000000000005" as="targetPoint" />
          </mxGeometry>
        </mxCell>
        <mxCell id="THO80avu8P2htPNswEXX-7" value="" style="endArrow=classic;html=1;rounded=0;exitX=1;exitY=0.5;exitDx=0;exitDy=0;entryX=0;entryY=0.5;entryDx=0;entryDy=0;strokeWidth=2;" parent="1" edge="1">
          <mxGeometry width="50" height="50" relative="1" as="geometry">
            <mxPoint x="474" y="431.52000000000004" as="sourcePoint" />
            <mxPoint x="575.25" y="387" as="targetPoint" />
          </mxGeometry>
        </mxCell>
        <mxCell id="THO80avu8P2htPNswEXX-8" value="" style="endArrow=classic;html=1;rounded=0;exitX=1;exitY=0.5;exitDx=0;exitDy=0;entryX=0;entryY=0.5;entryDx=0;entryDy=0;strokeWidth=2;" parent="1" target="THO80avu8P2htPNswEXX-1" edge="1">
          <mxGeometry width="50" height="50" relative="1" as="geometry">
            <mxPoint x="230" y="340" as="sourcePoint" />
            <mxPoint x="354" y="340" as="targetPoint" />
          </mxGeometry>
        </mxCell>
        <mxCell id="iSJP6n-plgs5U3rNxnB9-26" value="Bioinformatics Visualisations" style="whiteSpace=wrap;html=1;aspect=fixed;" parent="1" vertex="1">
          <mxGeometry x="575.25" y="345" width="80" height="80" as="geometry" />
        </mxCell>
        <mxCell id="THO80avu8P2htPNswEXX-14" value="&lt;b&gt;&lt;font style=&quot;font-size: 14px;&quot;&gt;3&lt;/font&gt;&lt;/b&gt;" style="text;html=1;strokeColor=none;fillColor=#dae8fc;align=center;verticalAlign=middle;whiteSpace=wrap;rounded=0;" parent="1" vertex="1">
          <mxGeometry x="1382.75" y="690" width="37.25" height="30.88" as="geometry" />
        </mxCell>
        <mxCell id="THO80avu8P2htPNswEXX-15" value="" style="endArrow=classic;html=1;rounded=0;entryX=0.5;entryY=1;entryDx=0;entryDy=0;" parent="1" edge="1">
          <mxGeometry width="50" height="50" relative="1" as="geometry">
            <mxPoint x="1378.75" y="825.88" as="sourcePoint" />
            <mxPoint x="1378.82" y="774.93" as="targetPoint" />
          </mxGeometry>
        </mxCell>
        <mxCell id="iSJP6n-plgs5U3rNxnB9-107" value="" style="rounded=1;whiteSpace=wrap;html=1;dashed=1;fillColor=none;" parent="1" vertex="1">
          <mxGeometry x="1984.5" y="1067.88" width="173.5" height="132" as="geometry" />
        </mxCell>
        <mxCell id="iSJP6n-plgs5U3rNxnB9-31" value="" style="rounded=1;whiteSpace=wrap;html=1;fillColor=none;dashed=1;" parent="1" vertex="1">
          <mxGeometry x="1984.5" y="906.88" width="173.5" height="122" as="geometry" />
        </mxCell>
        <mxCell id="iSJP6n-plgs5U3rNxnB9-53" value="Biobank" style="ellipse;shape=cloud;whiteSpace=wrap;html=1;fillColor=none;" parent="1" vertex="1">
          <mxGeometry x="2063.25" y="1106.38" width="85.25" height="55" as="geometry" />
        </mxCell>
        <mxCell id="iSJP6n-plgs5U3rNxnB9-54" value="&lt;font style=&quot;font-size: 12px;&quot;&gt;Internal data &lt;br&gt;drives&lt;/font&gt;" style="shape=cylinder3;whiteSpace=wrap;html=1;boundedLbl=1;backgroundOutline=1;size=15;fillColor=none;" parent="1" vertex="1">
          <mxGeometry x="1998" y="1087.88" width="50" height="90" as="geometry" />
        </mxCell>
        <mxCell id="iSJP6n-plgs5U3rNxnB9-55" value="Code" style="shape=note;whiteSpace=wrap;html=1;backgroundOutline=1;darkOpacity=0.05;fillColor=none;" parent="1" vertex="1">
          <mxGeometry x="2013.25" y="927.8800000000001" width="50" height="70" as="geometry" />
        </mxCell>
        <mxCell id="iSJP6n-plgs5U3rNxnB9-101" value="&lt;b&gt;Application Infrastructure&lt;/b&gt;" style="text;html=1;strokeColor=none;fillColor=none;align=center;verticalAlign=middle;whiteSpace=wrap;rounded=0;dashed=1;" parent="1" vertex="1">
          <mxGeometry x="2009.13" y="802" width="163" height="30" as="geometry" />
        </mxCell>
        <mxCell id="iSJP6n-plgs5U3rNxnB9-106" value="" style="endArrow=classic;startArrow=classic;html=1;rounded=0;exitX=0.5;exitY=1;exitDx=0;exitDy=0;" parent="1" source="iSJP6n-plgs5U3rNxnB9-31" target="iSJP6n-plgs5U3rNxnB9-107" edge="1">
          <mxGeometry width="50" height="50" relative="1" as="geometry">
            <mxPoint x="2159.5" y="978.88" as="sourcePoint" />
            <mxPoint x="2212.530303030303" y="1034.88" as="targetPoint" />
          </mxGeometry>
        </mxCell>
        <mxCell id="iSJP6n-plgs5U3rNxnB9-108" value="Shared Data" style="text;html=1;strokeColor=none;fillColor=none;align=center;verticalAlign=middle;whiteSpace=wrap;rounded=0;dashed=1;" parent="1" vertex="1">
          <mxGeometry x="2066" y="1169.88" width="82.5" height="30" as="geometry" />
        </mxCell>
        <mxCell id="iSJP6n-plgs5U3rNxnB9-109" value="Executables" style="text;html=1;strokeColor=none;fillColor=none;align=center;verticalAlign=middle;whiteSpace=wrap;rounded=0;dashed=1;" parent="1" vertex="1">
          <mxGeometry x="2083.25" y="906.88" width="60" height="30" as="geometry" />
        </mxCell>
        <mxCell id="iSJP6n-plgs5U3rNxnB9-112" value="Model" style="shape=tape;whiteSpace=wrap;html=1;fillColor=none;" parent="1" vertex="1">
          <mxGeometry x="2083.25" y="944.4999999999999" width="60" height="46.75" as="geometry" />
        </mxCell>
        <mxCell id="AIP2rtYdTXtsvyKJKe4--35" value="&lt;span style=&quot;font-size: 14px;&quot;&gt;&lt;b&gt;5&lt;/b&gt;&lt;/span&gt;" style="text;html=1;strokeColor=none;fillColor=#dae8fc;align=center;verticalAlign=middle;whiteSpace=wrap;rounded=0;" parent="1" vertex="1">
          <mxGeometry x="1971.38" y="800" width="40.25" height="30" as="geometry" />
        </mxCell>
        <mxCell id="Rma2AlwZcZ3yD9oSs5zd-1" value="" style="shape=image;verticalLabelPosition=bottom;labelBackgroundColor=default;verticalAlign=top;aspect=fixed;imageAspect=0;image=data:image/png,iVBORw0KGgoAAAANSUhEUgAAARsAAACyCAMAAABFl5uBAAAA/1BMVEX///8zMzMAAABBhz8YGBjh4eFpn2OwsLBnZ2dbqUZYpkVXpEVcq0ZQm0NSnUNUoET4+PhcmFUSEhJfr0Zim1w0NDRNlkJktUcjIyNISEguLi6pxaZtoWdHj0Hg4ODY5NfD1sLs8uzx8fEfHx/CwsKRkZHPz89pvEmzs7OcnJzr6+t4eHiNjY3GxsZVVVVgYGBCQkKAgIBBlDiamppBmjXj7OJubm4qfya50LeKsoZ3p3KVuZGnxKTn7uZWlU5AnjOBrX3U5tBDnydholiBvHE2jiekz5nE4L1zvFpYsTeSvot5sm6d0otbujFnv0IjghspjhknlxEmoAY0gjEheCDnNMcZAAAOtElEQVR4nO2deXvithbGjVhMJpvtMYkxA5g17OCQEBISJp12ut1Oe2+n3/+zXMnyItmSWR4wadD7RxZsLPnnc46OFoQkCQkJCQkJbaBpvnLoKrxZmabWrx+6Em9UhVTK1KaHrsXbFGSTShlG59D1eIty2KRSjUn70DV5e3LZQMcaZw9dl7cmjw2kA0TYoRWwSaWAaLAokWwyItWhRLEREYeSYMOXYMOXYMOXYMOXYMOXYMOXYMOXYMOXYMOXYMOXYMOXYMOXYMOXYMPXv5FNRe5t9gZlu3LWZvNmuNX7wACDDd7ww8mXH6sbFZDBU3ZrsqkUtYa8wfX3p65mwqoajXVnjWo/fTk7Of36urbtoAJMrSutyabeRxV6C/M0TdNwK9sorlWbn3/7eHby4cP57dfnjQowzKZkrMEGPyo0TzM77Gh7dpQJartObX757frjGWJzenV1e25tVEBDS61kEzyqA08PKzYwyeq6ls/XD79CNC6bi6vz87sf7zcrYAUb6lG5tnYYyRkjUuO42tT++HZ97bOBhnN+fvH195iwwyoghg2LZGZ0iKmaYaHBrvOIEwh+/nZzTbK5cOBc3pU4BbQn7AJ4bNgkTc3eMmHYWr2xxrN2E7Bq88vNnzc0m0vE5vzi4u7yB1YBeW4BTDZ8koaWaHuuDPhxANUmE67N/a/fbm7CbLDhXFxcfv5PLVxCK7aACJt4ko3CcL88CMmNmDiAa0NlF8ofDhkGGwfO5eXp59+pAjrGqgJoNqtImtp4w8R9W4UaA3ZtQMs/3/r25w2TzXkA5+5zkChni7GBJsKmvfJRofrEt6A7UkVbWRMk4L/hr8tYNhjOado/f0WgibBprHV+IusuKmuYDZTmBWTlr/INhw1hOFf/bHj9gM16zyqRdReMupuMJ0ewubr4k8/GhZN+8K6f3QEbRn0SGdOIsmlM7ELE5Qk2t+XrGDZOllOOZdPIRCNQDBsYeqN+eRA2uMXuhmsTsPl6e3u7gs15OoYNWhjajLRcXDZOoxRt1A/Axs/08NAAi81/IZuPMWyuzi/KfDamhlu8VuhmeWy89CGcDCYfb8xi8DgqE7L2NJtbHpsyYnOV5rLR8l5mAk1hDTZ4UMvJJWWDrE/y7VSG7B70yCMhNmc8NghOmcvGIHPINmkJbDYNp9Tn5aNDhxivSCi/IYdsitQhMiaE2Nxy2ZQdNDw23Ouz2RTg/5aq5/Ql6sIWXcNJLC/eks1ZDJsyN95swaa2zCEtLZ+NkVh/anM2d57hsNk42iEb1WGjV102qwbcdqkt2NwhOlexbMp7YmNq/QTHbzZm8787pHT6mscmvVs22KdUS5ImZqOY6Ljf5mw+I8NJp8vJsJEWyHDUJ9hS9bWEP060BRso1BSd3XDYpHfGxkQv3D+purWv24/VVmxuEZvyFmzIB99Zgw2eBrL2d/ux2opN2tEHHhsI5y/vInRenPEDRqVIH2DnxUm2SlFtzObvL1/KmE36ZmM2Kffjq+HuGr+vebhJqa3YuGaTTl/y2KS5bLApRLr5cWMUh5mUQtqCTdoXl02azwZNo0RHhOPGttjTQAloczZ3AZvzrdiwFD8mmvCklCeKzYg6RI6N+mykv9OEPvLY+O3UmmP1mu83gHk8yUkpXwQbE9DLSprEPFHA5vWBYHN1zWbzsPCvklln3sDM+Of32YZ2iA8D+2wYGyAQQ5EBG2n+/XsA54TF5nvaIi6yxgRYZkQMOvDmEpMPOx4bdmvgD0VqZLUW//hsylE23x9Cy5TIVTQsRZpp3hx0dPZ5v8Js+FmE+xQpNlLtyXes048hNg+vkelwRptNmAMjveNOiDcKSbbniE1s9olXEmghc66mPcei2TwsmcsiI7leQIa9Ooy3kEKzt7/VjVXJrNxpBa1ACbORpNIDpnPxMWBzezvnlsOcFo9ZVcgKOyYYJBlyFG2NtHNYSDHe+YjDTmA3XxfRswJFl1Os2MMkvJ4C2lhC6yd2oPscCjtXZ5jN1+i6m5DomyUXZ7BFh53MeitX34wsFHZOTj6cXt6dh9drWfNI6CFu1gymqmIUhB0jdbg+57YqPaSvTk4/fA6v87N0VVc/Reh4N7v2YmrsiUbmkGMVW0t5/efuS3h96P2TmsvpuZz6GPEzOWOYGyUqLdBINgTvUvel0LpiZbHUc+qrlfNm3eijg8Jmt9rr/HtC8CrN0UxkzvL+OtBg71tUFVmL6uY5ygLSUZ/i16sfi2qvMNCoi8BnnMhDvnC0el5GzcTSCUM6WjkUGOGl5ASgTT5/9t5Uhd7DaJaQamhyUn19wf/dl0q8Tz28TymPKjOdceWEnaUzsFO1qpYS2/N6b4JOw0iDCTkO9wr/eJYW1dLLEXmYBf3JWnHOs5pTIZK59PR6Lx1RbC7p6mpLKDmB+ll6rM2rR5TykGyqVfynMl886frTo9+lmDtsas8vkrXeJ1/fh0g2urpEIbm0hBEGLbnSVfcT0thuILPSEUUbms2nnFpz1hTpqiOU3LgnHWXfKsLmfpnTF05C8wJjsF7CJwk2iM1czz16L8C/dXySYIPYQA5B8rvUcQQSbDy7CXpQVcvCJwk2iA1a+6qqT4u5dU+cJNg47ZS11J0GHLboT6Wae5Jg47CBOR5sw3Unx9GXc3ySYIPZQNWqFsyNYYKTc6bJBRs33tSCYVALWs5CEmwkzKZWVpfBUUvPvUqCjeTazTKnvvhHLV1/lAQbyWXzpOee/LWln3L6XBJsJJdNFfan1Me5ZcFojEZLFUmwkbx2ar5Ekw6OIKV7fJJgg9vwl4WT3sDkT3/G3jUXbIL85h56lFX1Y/KRsoFdS3+WIWATOWeNQeX3J4WYnNOZbJw1BJ8Srtbb0MsnZ3JOweYROYzXEKy/s+Y7E14T8ITM4zF8DK0hOO4Z8eclnlhYhlxKrKSQ3GGJ5esL9WJVrMBxVXuhIdScNQRi5Zav6ifPgUpixR+l2lJ111Q4gYa9JOdYpTi9ywUONNwlOccqtBRJR+4UuyTnWDVH/cxjb7d5UubPc9FuCwkJCQkJCQkJCQkJCQlx1e72x+N+d9NtH+rNlt0fyLwtPyqynQ++P09pDvKj/KDD2jql1+wO7EF3yDrWlge2Pe0caDu7LgBFe9qyRwAE3xCm9RlnNoEiSVn3qz6GE2D0W9PBmHwblDzyrpqfyt5+Jdk8/Hcwbc1MUAg/gk4GTPr2wIbHwvubVMYgk7cHg34RHGI/uyEItk5qGv6uZHUQ3SKjByrOT+f4BHS9ylZG5GZm8hj+aAOTRGCDmbehmNIFY+qiGlFSU9N61NtavilVZiDp/eymgHpUsl+BZnRHe7yRu8OmAmbkkSFRb8RGpu5DMTLU5gkj4tK90IYvAxB4T9GkqlABSe6dhCw/tEFcxWdlN0Ln5rGzIDa98H73vQAxZDOkN8Vr0FsrIgC+f4DwF/21/G/nmWqhQz2Q5F5/7TAa9JL3jA36MXXcSiM2kTuCTL0rQTa0LY7NSLn9iXfR8P1Lkr+rC4jE3y4Iv7JHsVy45d1KnXpMPe/mIRs7bAhQXW//ZjkvU9tMNgEjiHr0RtHtbTxcTQaIKK69acDYTQtWwEMyJO/KxwjZML9cwwupct+gogszhLbdGwfRvEFxS53OIodYKPclRs2gZM/gJTvwhrHfuMBYw2rfJbng/jYos5HZfmBgkixDcGvVYkTeFrPkfUiOOjuSEpiF4eVuxB32gMbesscNVB062jTYj9r1O4MRXV0DlMfRQ91R9LX9aMKx0KJ/c3X3GWZBgKMHJtG3II2w83QAia4H2CDrGHafYRx17FNthsEpiX23Ly+yTQPLdUMOaQq9aCOF1c07v2gn4timV3ibg845Y9VWd3sU68E4GhIh2kZGMsoTR3vsKOVfT6aa7BkvQoyxleX5TU/7gHA60bwDK0tCM6ahtILnJZ6byFQDX+Al+rZ74zbI8/q4Q5CRDzR73GUEO0cKyaIOZBpGj5uAYf+j2XBT2a4XabJ9AGbM7jnuBncP0QVvNWZ5tqi7H9LtThwbh2GIzYhTRoFwtqGtwX42c//HShd2wcdy0pvZtYodmSPytIlJ+96GbKa8QmhPUprQfFItpo20WxMA+olunclKPKOyC9KEOjGGjeMYITYbDJjVm3mgcRC0BwAM2If2IXmdRAr1hhTKq3qs/hGSworFjQ0f9xTwoqA0zCTXnWpmVp+Dk78K2V3ntlMVFpvRpgNSdcDoyLrqx2RDu1WW5xxE9umO05CtOHcUpYPtkGZj88ajerzWWYkZ38vz0o6dKzp4g2X7TUjec7tx4H/cvLiPOdJsuEkU8g+F6Z6yM6iWZxJKzKuKnAeU8sILkf4HA309UGC/za03zYYXubHRMgc7cA45Y3b2eFXeubrsTqPfD88ShhX0FLLGhOn1XheEZhMaAwzKdgyRbQZO+ezhiD7HZneuOju0+cio2+p49p/VOsxqe480xKbLtjJ8bXakdkpqGqxDbGvah2bM9tKLtUU6/+m7PVDoDSymfs81xEZhZjjugGeX1SZhN1SY/lZILAOss5oc2zWbyDB/Azc5kE2X8Uz9WaYQG/YAuHu2wmoOprjXP2IN7SQ4mC5HLUAG3tBS+Lm503koik7y4bcV/VfCbCQzap0F72w72ozV3SCUZXArJjlDZYejYcutkcIwqaFD0mlhtFBOPQrCeoSNEk5168SIciOcnNf9UZtpBE4/yTkYZPHkAFK7YbjWYrI6LwNUN9z6Fsk54TYg7CjCBpoJFXPoIkNfftUhek1TenAra2YSHs3JTmAXN6soSm8Iu3Neu9Fnty6TsZ9Oy7DvN+wpSr3SNam5c5mRGchAm7adkzszMKLNoQtAq+08kTrsUGaobxo3wayJvb4iT3g55z5VaRUB0sT266V02U9I6faCrkZz5rwNzGjvyzK7FM2+ic7Vxt1o89PsG/hKBTuc73h1AyCf8PfWbiWqG6bsysqhTXEvFXPojYnbRRUSbGIk2PAl2PAl2PAl2PAl2PAl2PDVS2w8W0hISEjo3ej/OPutUTXgKw4AAAAASUVORK5CYII=;" parent="1" vertex="1">
          <mxGeometry x="-132.20999999999998" y="110" width="92.21" height="58" as="geometry" />
        </mxCell>
        <mxCell id="Rma2AlwZcZ3yD9oSs5zd-16" value="" style="verticalLabelPosition=bottom;html=1;verticalAlign=top;strokeWidth=1;align=center;outlineConnect=0;dashed=0;outlineConnect=0;shape=mxgraph.aws3d.image;strokeColor=none;fillColor=#777777;aspect=fixed;" parent="1" vertex="1">
          <mxGeometry x="1360.5" y="457.25" width="36.49" height="62.75" as="geometry" />
        </mxCell>
        <mxCell id="Rma2AlwZcZ3yD9oSs5zd-18" value="&lt;b&gt;&lt;font style=&quot;font-size: 14px;&quot;&gt;III&lt;/font&gt;&lt;/b&gt;" style="ellipse;whiteSpace=wrap;html=1;aspect=fixed;fillColor=#1ba1e2;strokeColor=#006EAF;fontColor=#ffffff;" parent="1" vertex="1">
          <mxGeometry x="1937" y="532" width="23.75" height="23.75" as="geometry" />
        </mxCell>
        <mxCell id="Rma2AlwZcZ3yD9oSs5zd-19" value="&lt;b&gt;&lt;font style=&quot;font-size: 14px;&quot;&gt;I&lt;/font&gt;&lt;/b&gt;" style="ellipse;whiteSpace=wrap;html=1;aspect=fixed;fillColor=#1ba1e2;strokeColor=#006EAF;fontColor=#ffffff;" parent="1" vertex="1">
          <mxGeometry x="1430" y="470" width="23.75" height="23.75" as="geometry" />
        </mxCell>
        <mxCell id="Rma2AlwZcZ3yD9oSs5zd-20" value="&lt;b&gt;&lt;font style=&quot;font-size: 14px;&quot;&gt;II&lt;/font&gt;&lt;/b&gt;" style="ellipse;whiteSpace=wrap;html=1;aspect=fixed;fillColor=#1ba1e2;strokeColor=#006EAF;fontColor=#ffffff;" parent="1" vertex="1">
          <mxGeometry x="1700" y="470" width="23.75" height="23.75" as="geometry" />
        </mxCell>
        <mxCell id="Rma2AlwZcZ3yD9oSs5zd-26" value="" style="shape=image;verticalLabelPosition=bottom;labelBackgroundColor=default;verticalAlign=top;aspect=fixed;imageAspect=0;image=data:image/png,iVBORw0KGgoAAAANSUhEUgAAAPUAAADOCAMAAADR0rQ5AAAA/FBMVEX///82RUgdkbQ3sdkbgaUioMi92dc4NjM2MSw3tuA2Q0Yhq8w3QUI2Ulsod5A0xeoaMDQjNjoqOz8udYfBxMU1i6IwQEM2QkOXnZ43PTwtfJDv8PDT7Ow0vuI1gpcml7NbZmg0sNA0ob01kKgvbX08S00yX2sSKy/09fUmbIbV19dtdndJVVgjo8I1S1AwaHczWWKtsbKzt7iBiIrQ0tOPlZbh4+OSmJlze30fe5wAirCjqKk2LSZha202IRM3jaoAe6IqZnzQ5+ePxNPj+favychcnrSFm5udtrUAHiQAExokmb5hrMSl0du63uR1tsp7qbZ4jo6hurmPqak8RIbCAAAWmElEQVR4nO2dC3vauLaGoyZpgjHEEo7BIReaBJuAwx2XlDKcZNrTPZszM7u7//+/HEmWbdmWL9xph+/JM50QI+u1bktL8tLR0dbVgPUYwer2c7MtNRQQI+UXp5bkiKRfnlrqPkbUlX51avn24uLihv04/15cyv8A6s7lTffhQ/f+ufvhrntzafwzqEHp5vPlh89395/zD59vruR/BnW7dHN++eH87v48/3B+c1U+UP+KOlAfqA/Uv54O1AfqA/WvpwP1gfqfQC2Xbn67/PDb3f1v+cvfbkpn/wzqm7B+RmpgKpkFgPx4H1FpJerhGlmyy5LiHJ9CyXpE8irewsEflXXSZBWhjvo9y0JvqPjTVXykFQXA1lp5sglTt0tht2epU5a6t1dhkU+j1xrL+0hVE1cfZDXWi5RBliQZ+Xz+mf54utPlEu8NpQ7RC/JpPqKrpdt1FUPj+qMhe81QqcLU3fxjN9/t5NulZ3B7Bx4ewP2DLj9edB4v2rc34OEDuL8HHx7ADaUuOFddPoC7W/Bcaq9AXdOA3AESkJRtY1PqTjvfNvL64/PZ1d3Z5eXZHaU2jAvdMUnu788/YJOEUgN21cPZ3e3Z86O8PPVQAVIhd9wubx/bpS6Iqa8i1O0AdUlantrSgD4/Pj4uyEDa8vrg7qibCih3cscOtqZttUvbHfUAF/XpMRWu5Jq1drQE7Y4a0lbtCA9gcLB2tnjtjHoIsVXvUp/qAJhbNE53Rl1BXgU/Ps7NMDZcP12cdkaNB2vgFjXG7sgAba+O74waT1s7PjVt2ubWRu1dUVcVrlmzOq5NNwAo1K6ocWemz7iiPs51y8BsboBQpF1Rq5DrzKjmuLDHGyAUaVfUPdyFB6BxYUvA3JKFtip1eUnqSYT6GLds2NsAokDcnOvs8fn86u788vLcoe4aF2feJpQPl5+9ORe96uH87up8+TlXJUqdkzfQn1VFaliA8yo8i7wKN94P8ypw7odnx6sAbWHii1I/ysBcN/VU6A3Fw2ThNqKSLBkPEZFPo9d2ytisEiX976TcCGo4reLr7sVbWqzjMyoAJKE3VOxDjNldmpSbHgr34dQaR6RhN5pqrzIaDEaVnrqq4UKoxXxZP8V85ayfSinUZOSah6s4HrsG6gCYECImqJi1yirlj6nbEbfnFa61hYfLsK5kqRu9tlMudyKXXpJPo9eS3aVJuWmGrRRC3QZAg1rIQ68hBVSWdrUQar7fcjqle71shLyh+OdZL3eintNLme0j9Ts4uo9Uvs0HOjjyHdwzJVITi7SYC1F3JdbiaHty/ksakITM8ZLclLqk540CdQ2W6LD7QKkfCxeFDj84U+qukZf9wfnq7JlSh9Y0JYeaH8L1fKeQSn2EQNkIUxtl3Fj0wmtxNj+lms+KHUD6E6CZo9WoeYcoT30WpdZTqWURtZGBeqwBPVLWut6ZnYb1rgh0sloA+6tQL1DW6dTlZalJJz4PUxcjyI5mbVz3tdrPT23jhl0KFXYMM1F7yen3nlGTFTY5MzWZfS+1DLhv1MQ6m+UyFrW0rKdl36gbJgDtXDZo3Lkv6VXbN+qjES5szomUAF1c3oO6d9SksH1bPAF6toK3fO+ojybc8kcC9Asp6WU3cuwfNV3AZgZaSvVe2qG2h9S4ZQO5kAxtEOjl967sHXVfQ2QaT0av+IIms4/lS3rfqBsTBPEgrBdOE6Bf2mSib66yOStp9tEOzD4+J1GDdcw+1JaJ6O41OnKJkd89OZMObSWnkkMN8kY3X+jky6Vn/fZOv6PUpe5Ft3Mh3d7oDx/0+3vdoTaMPMBXXd3plw/63a3sUBeubvRL56oH/ea27VB7V+nEWdzpJlDbvakJNcpcOo6Bns9e23SCicyPqzDTqV3Aq5AXeRUcl8GF71XIi7wK3mYsgVchH+9VaNhqpQUVRJDLunRLmV3o18di8eXlpVh86hRknfiwiDNhsJAzQZ22wqrjdEoR4dwJfaSgG722Uy4LfaSSEb22K+Hpgq9pzQKKokBKjJF1Y5YLDFnzM98RRz0qElK0RR1HFaiFFesNzfxprLdQvM8SBO/P3GFlmSAf50Im2ZPMeco0BE3r4+LtecC5gaW9ULlMHWGScTvP5XIROxQ/E+S40U1UG0yGSy14ETdwoe2osBcyjMfibH7MEfPQ2OpElapt28krJimyNKnrppnbHwWdCFzvXZCAufpGO9x+DDfF430VNzavZ+2a7Nvbd2pufO6UgbKGFS4TyI97Ts0bJfp69hZi6qf9puZNMWw0QHUN1Mq+UwcMUB1IYCnMUAe4bepw75ymADQpauG6RqpXFASx11LDc7N5Rppc2J+fogA02USKREyDVF+ZggJ9IKZ+jVLnThfJXO5U1jNiG2dXi6R8Og8XtWgXTstMa+u2Epx845HLo3axc7nb81nmzOXojlbedRt75Sme/OtG5lqOcwQKPvdcXNRNPLNOc4GTvaiw7j8bjbNSTl2Ktg70YsRAimNukzk90AspxZ07LukSnS0XjzOljW0SPDXQH11uPFZHW3V1bKZvLB0jOs+A9R6z2smGKo46lzt1lkOB3J6l5Q1bjvOSrLM5kqQb89hv4D8UZXe2JNO5VFrip+8M3b3aLepwBz4cm5oz20zAti3kzq+g2eqRK4njxKeelRzPBJVeLs3jMkdM5fmtoevcvA/Phtu3p1EjmqQxM0JX6oUSIRcnnyMPv6CXvatlozjHE/HAWN1QBwi6M0bJjNt212QPxt/GodRGNQnI72azl2KReCYCWaMvWxps/sPPDE7ns9tOgW2KAKFvgM5t4AvHp7MSvjZyqYQTLxuly9lpJHmcOtDlwK6TMq1SWl8dDpvDodobtYAJEX8FBIIxzZ5YSnRHlYZI2mRrh+uZCKtMN3208fyvQ2R022VnL0jsy6p0dtzu0uuNArk6/lpnKq2DQjeQvCzHXI+gI4TCW3EItzLg64LdHyt/mFAo8rzwRJ5J4CxxxO0ly6bFrpYDyZcFolhpUv74t1Vx/AxVtd9XYzVBQDKeXBX3Qk9RvRIffzwFr34/w6TMxAP2iat3+6CTqD4VwHq3CWN7vuCnvmtiIfPJyZO85rfXxthO8ZPfNbMY+kVe9xsuPQTkl32h/iSEPimssC4tFnn302/Yu63iYuaT13XX7yMy/+Aa9i4LO6agT8gWhLW/wYUbtuzfYneFHcN8coJHamXtr3n0IZCfdl/YsdAFacl9c4mqmthO2TV1LDNp1JLQgbKiaoEqvgj2p09rahDx0E+kUW/iTb1lq/in//vzrz//XgN3PDMdqdffqKnMQC+eFfvTX1/evr59eVuVOa7rpiLzrA29nUgCF/iGSsZu/NOfX74r5o/r67fVSjuJ+aQtbS6OQpNEOV+0sO+/fIcAvl1fX69SyROZTwplIG0uZoYVLOws2J9+v8bmjdZ6+/H+r6WpEyv3yYmBp5cbDAtDgs8Y/P0yZPjP95A4Y6D5ddkqnsJ8YsgbjhwRLux0Dqesidn0tmRZpzA70OtYyouVCoPdeAbs+y/fSGHD8Ze/l0BOK2cGveH3jesS0IsL1XHah0NlvFQfnspMoZXJZqGPhuQtg8Bts2Bfv3/78tcmmLcDTRdFuGl2YiWfz54M8sflbLP0uo1VINV789D0PJZAhybGnr8rdtq6LLfnlGBhOzwTMxmnN96mHalKuI4Havl8/m5WfDWAs+DBqBdVNuYXIG269/bVwnW88PpKvOIvrmYnZC2o+NoxCpjXWR6RECobyzBnQj45KZLHur0IT2QRRbz+UWarQZKGoGJ9+8/GihnrVd9uWMam6aBFFpAkTdMQWWKyxj++Xn+5vt5Ma6bqytsOwTkh1paFwqtHdas2/v7tv1/fCDDV7wthZ0fGTbq80isrSwkPX9q36/fv33/1hH/xaT1lp14A2andWxmxgsL2OPz+Pqq3EHW2wl6gYlORUVqDOwijDDD2WIAdBk8nXhT55Im+m1TbflTdo6Mq0gBqCbED4InzrMWJcYumBb392s1h12KwCbmD/iXGEl0GmIi2aFjfehxhHlurf43ndtjfwrTL8hI9tUns5FXfTVoNG7dtCf0rGRt38/+zPGVQLwVa0NbOCpqqQfZnCbvygH5fD/YL3VWGNuT0XkQtCBIbt6P/XQM2ZiY7qszBLrrusComMYZ/bBobM5OXvJTabiu3pyHZtQfTins17Jcu3YzJ72rdtRo1SAylbxvDfmoTZmmfmIkmZP8lqid35ktiv7yWaaQmZc+Ysao1RcKFYf03Cfs/S2C/tum2Uk2p7R0zkYrIq/3QSirvPxfEfmJ7gZE52JM+LKqKQrhRPal9zzJzv7wyZFy1J/swVsWpMTIpN2zFF3i2Wv5ktBkyVAbbihO8tBoVha7jIW0cC55W3E+4kGWGbLb2sjVH1avTveUaQtNv4r7t95MY7pen126bEeMaA8c/CTJVc6BABxyi2vcfginZf8LcmJdsivfiAEDTquzmuKlVpI4V550D4h+G9dr3bz/+9dXHf3v/N0F9eXl6en1l7nP22gPxJ4OB+rOdSOZqOKqbLM6DRJzF1F2Mf2+3SYBQTfa28rveZepAh9PKT0vMVFVHlklCXPBuc0kKO9FJnAeomPXxZOVQuHsjW62MLRLfgwS89WJfIFb4imJqtfHH1UP/7qWq9tAJbjxutcbjMQlyPOn11aa9z/bHQQcddNBBBx30s6n6cZweiWINak4m+zPXtE2koS2so45MhJTaxm+TUVM6kdr4mUDOhp9tHcKTKmfX88Z3R0zoBH0Dr2ctJ2fT1VoiKyWp4lDXNnybrFIO1JvTgXoPdKDeoA7Ue6AD9QZ1oM6oRnUtZrLdH7VqNas2HUx8AzSJejgZTMn141E/k4d7WGlZJAAysga90BdE1I1JJeZkqWZliujJh9agn23xxFb7k8kkskxsjzSycMHc9v6qaiy12jK56xWYtvLcHPsLI/gbSj0wjxNQNyFEEEWhqh+REzadJgRNK/XQLXXM1iXMYEA/e2oGYoKR5WQnLFgMdV+DofBgSLESpijNaDgxxL+MFqVWTUlY50fRnCYGiml8hH5WA+/KjEzRmZF0A6eQ2ragIDKZpkzjWtpYfAM/GGiEWjVZPoMJ9SESJJRwyFpP4b+A/OdjS6KUSCbMvpC6ImSg3MLibqKYGyDveNcwtQsdpKZ73YRSxAfFhr+AvKP3+mZMSiQxFjE+QD2NuzUQv1jXM2ND1nlMIWoPOnDsbTPcqngeTdCtRb6guBwTHpouPwZiGIIItcUVnBT5QtTZVOFuoCEnyl4KtQcdODVYDebUWSH3P4CRcUQNlafmuag4aJzOdFCpjMZICddIjtry74TM+nhUqQxqCvdMw28UThQ/FXNa6atq7+PUvYEmpPZrHx8QZejnVFO0wYTE22txPZWGQr0KB61BxTRRqx/5i2b6Y49dCXUaPvXUD+FZ73kFMWz5TT0Yj8nPK6xzXU4P4NEH/eF1Azw1B811E1Xv6fE5PVJr3uAQCqrR9NGUWsCg8JNSQhuxK4HG6FFX3DatoVC37vUbWp37uOHdIFz1h6PpyM8KRy2G9uuYMg224Kbl3jkwgvl3huH91lMvqYgZYgOu0bjUtpsjFH3RyGsriHtNwztGOeWAZp+ag+bz1HPRzOgg5d2ZPw6h5t450sGq7vMQhuGo+bXcpXaTQiJnpleZ/To+dG8Q7WpiqGOg3ZKThAmp7JFw5yG4aFL0tACL1eKYKEre43KpXYiYsDRuS/IdvG4KqWGaGHVLFUPT08dii8evUv7o7m4Kin7BhYBxSxvea7iM2k0cxthg7gN2C9ttEOmxBSuMyjMFgtANllC0ITr5cmulR91nCQle12YmSHxAIa8bdKjde8fbf2MnRdcE+ujkRqrHXe+pEhorQ+Ofs0gQt0rgWRB+PCjW9yHBm2CsZBLOyRgErBT2ABPCLrnNj0VbY3VFbKcGFKIOD/p1KVCHAqr63a7i1sGqGcgHL9vJYtJU3v22Qy0yT0Nipes8SDYuZglOFaQOQ7s5FRnbQ3+89tswKx8ksI/ZnxL9JDUelBWdlnA9y59zO9a1ogynTgeoI4OTm1NBQn6fj+r+uMXKR7Qoye5kRv/iq4c4aucGKPHIcOfJOPH4WWtUMrg7eOroiDxgCUUr+EffFuHbvDM4CWux80CSfVVNrj5Us/jQxlyibLhJqhuuOGqBGcJqXPQYvrHX5yuBsmA1TjR0OONQ8jEJPCmrvcmBxVj2aa/NHqt46iv8GhDPVR1oKdI/+NO/0KNKWIl1qIUPRPh9Vu7JFZY1CXo6AaPOEl7QoxYu3LOxI/T4/M5bCg3LjYRV901S01q9BLW4vQmpm37nHY6i4lKLhmRGndg5NRat4U4PJvFlnWUDglfWwqO5NcET4ebI9XA5JFGPMxSFzdUVOyEtT0536zTBEff/KfLbNRRgO71Z4FQm30ODapHrk6hHziNMNBfZkEvLl6WVPPxaXA/mjlxJ17sQ3Pwuis2GX8Uffv3OW3TwbxI1a4KJZ/QFhnvWvJIqBzPVnXrKHlmWrTz8eB3Fdq0GLyF/Eiw8+DeJehhv8Xhyvs7qVitu2Izkz7HNqlnMGkcB2yyC7Vqk7PNq3XdXCY2HJGpWLklmsjvXGfC/iaxbV+58w+nx2KQhQxUP2uERbDdZWuV8f68WM3FKonb9RwnGFms97Ao7OKMSyPXzoABLhsIOzbngSPhn2nC4zhvENM5EajWYx6jGrgeD/c58L7FhjV3no4vpehXSw9iH59chbHfuh60R35WNYitpIvWRaxrE2Ix9F8KtcK6HQonpClw/pkfJalN6TGBG7ZuYQbvanX8AMPA773g7IJl64tZgYeENo65H16Uk7kRcR45vl3iOtnoKNvObTW1vDqUE3CBuYXMehIRmk0ztUUBBaXvQnLnkOVVFA0bLc976Fdp1F2paciX3fKS24vrqlEr0Al+JkSpTqD0yTQsPqpzxw33qOdBheNW26tVOyJWS50CXIs+pyb/C5/vD47BD0Fx2m5Pw6/kp1H57kZQWXxpqHYpuwK0oaIEIsA1/dTc4Eo68dJDG9waqpUDTX0rg1j44bP4O/gIOcT96bY7uXEChuUEaNbdYpylWr0myUVVHmr9YGwpvy62xIWVAi6tBjvniLMpGzA0kCAe9oV2t2urAWZXzFxP4dS4bCu/NLRMCa9Qf2nZT7bE9Flrw3L1U6obmL+yQ/SUmPTveTz/SafT4hVlIThZX+CXNyJSsEVhuReQb/vXilVwfO+As8Ltvuv5K95p4K1aBu6ZSH1U57KgEocUCC95hCVaRqwlr7THr17a4eQ2U2ISCtn46tRO/K4ZB4MNK3NwALYG1VAWxN/A6ytBeBdvd9xJcQJjE7noIekMzUJO9MnEM4uGmqYkxYoPOtRRxbv3YZeF9KR520IPbrENROuHSyUR9NKwL9hShhDDdke1PgPaGsWOyqglyq3GDmWPAc5PYKmuyMJTSBEayqkErjOcUY+qBCf26wvc6EoKokmROVUnoDO72GjJridPoHr4Bd71EwqNwmWrQuhvYm0D7G8G6YC+QVQkpVtRQpBMILX157ciu1EyFncNo1geJTm8qdQC8LyjTSaqrv1mx/BuAQT/4UIck/kCgcjVqZERPSInsxzGtiqhAG3UFKlkjMVeb5ATGYeZIAA17SK5vZg6EQa7v4xsI/xb5tKnGN0xb7ff7ajM2p01VXPX+HyRgZF66AL8+AAAAAElFTkSuQmCC;" parent="1" vertex="1">
          <mxGeometry x="1967.5" y="847.88" width="47.58" height="40" as="geometry" />
        </mxCell>
        <mxCell id="Rma2AlwZcZ3yD9oSs5zd-28" value="&lt;font style=&quot;font-size: 18px;&quot;&gt;Cardio-Verse&lt;/font&gt;" style="text;html=1;strokeColor=none;fillColor=none;align=center;verticalAlign=middle;whiteSpace=wrap;rounded=0;fontSize=17;fontStyle=3" parent="1" vertex="1">
          <mxGeometry x="1370" y="160" width="143.75" height="30" as="geometry" />
        </mxCell>
        <mxCell id="Rma2AlwZcZ3yD9oSs5zd-30" value="" style="group" parent="1" vertex="1" connectable="0">
          <mxGeometry x="2240" y="200" width="280" height="670" as="geometry" />
        </mxCell>
        <mxCell id="iSJP6n-plgs5U3rNxnB9-48" value="" style="rounded=1;whiteSpace=wrap;html=1;fillColor=#f5f5f5;fontColor=#333333;strokeColor=#666666;" parent="Rma2AlwZcZ3yD9oSs5zd-30" vertex="1">
          <mxGeometry width="280" height="670" as="geometry" />
        </mxCell>
        <mxCell id="AIP2rtYdTXtsvyKJKe4--16" value="" style="group" parent="Rma2AlwZcZ3yD9oSs5zd-30" vertex="1" connectable="0">
          <mxGeometry x="11" y="235" width="250" height="60" as="geometry" />
        </mxCell>
        <mxCell id="THO80avu8P2htPNswEXX-17" value="" style="group" parent="AIP2rtYdTXtsvyKJKe4--16" vertex="1" connectable="0">
          <mxGeometry width="250" height="60" as="geometry" />
        </mxCell>
        <mxCell id="iSJP6n-plgs5U3rNxnB9-51" value="&lt;div style=&quot;text-align: justify;&quot;&gt;&lt;span style=&quot;background-color: initial;&quot;&gt;Platform user-interface containing an authentication layer and a dashboard for access to the main pipelines.&amp;nbsp;&lt;/span&gt;&lt;/div&gt;" style="text;html=1;strokeColor=none;fillColor=none;align=left;verticalAlign=middle;whiteSpace=wrap;rounded=0;" parent="THO80avu8P2htPNswEXX-17" vertex="1">
          <mxGeometry x="32.89473684210527" width="217.10526315789474" height="60" as="geometry" />
        </mxCell>
        <mxCell id="AIP2rtYdTXtsvyKJKe4--7" value="&lt;b&gt;&lt;font style=&quot;font-size: 14px;&quot;&gt;2&lt;/font&gt;&lt;/b&gt;" style="text;html=1;strokeColor=none;fillColor=#dae8fc;align=center;verticalAlign=middle;whiteSpace=wrap;rounded=0;" parent="THO80avu8P2htPNswEXX-17" vertex="1">
          <mxGeometry y="7.5" width="26.48" height="22.5" as="geometry" />
        </mxCell>
        <mxCell id="THO80avu8P2htPNswEXX-16" value="" style="group" parent="Rma2AlwZcZ3yD9oSs5zd-30" vertex="1" connectable="0">
          <mxGeometry x="11" y="46.06999999999999" width="239" height="183.93" as="geometry" />
        </mxCell>
        <mxCell id="iSJP6n-plgs5U3rNxnB9-50" value="&lt;div style=&quot;text-align: justify;&quot;&gt;&lt;span style=&quot;background-color: initial;&quot;&gt;User access to the platform. Three types of users based on function.&lt;/span&gt;&lt;/div&gt;&lt;ul&gt;&lt;li style=&quot;text-align: justify;&quot;&gt;&lt;b&gt;Platform Developer:&amp;nbsp;&lt;/b&gt; Works on platform architecture code&lt;/li&gt;&lt;li style=&quot;text-align: justify;&quot;&gt;&lt;b&gt;Application Developer: &lt;/b&gt;Works on&amp;nbsp; building the dockerised tools&lt;/li&gt;&lt;li style=&quot;text-align: justify;&quot;&gt;&lt;b&gt;Platform User:&lt;/b&gt; Users who make use of the tools and functions available within the platform&lt;/li&gt;&lt;/ul&gt;" style="text;html=1;strokeColor=none;fillColor=none;align=left;verticalAlign=middle;whiteSpace=wrap;rounded=0;" parent="THO80avu8P2htPNswEXX-16" vertex="1">
          <mxGeometry x="30" width="209" height="183.93" as="geometry" />
        </mxCell>
        <mxCell id="AIP2rtYdTXtsvyKJKe4--6" value="&lt;b&gt;&lt;font style=&quot;font-size: 14px;&quot;&gt;1&lt;/font&gt;&lt;/b&gt;" style="text;html=1;strokeColor=none;fillColor=#dae8fc;align=center;verticalAlign=middle;whiteSpace=wrap;rounded=0;" parent="THO80avu8P2htPNswEXX-16" vertex="1">
          <mxGeometry width="26.42" height="23.93" as="geometry" />
        </mxCell>
        <mxCell id="THO80avu8P2htPNswEXX-18" value="" style="group" parent="Rma2AlwZcZ3yD9oSs5zd-30" vertex="1" connectable="0">
          <mxGeometry x="9.860000000000127" y="310" width="250.14" height="40" as="geometry" />
        </mxCell>
        <mxCell id="AIP2rtYdTXtsvyKJKe4--2" value="&lt;div style=&quot;text-align: justify;&quot;&gt;&lt;span style=&quot;background-color: initial;&quot;&gt;Access to the command line or node-graph based interface.&amp;nbsp;&amp;nbsp;&lt;/span&gt;&lt;/div&gt;" style="text;html=1;strokeColor=none;fillColor=none;align=center;verticalAlign=middle;whiteSpace=wrap;rounded=0;" parent="THO80avu8P2htPNswEXX-18" vertex="1">
          <mxGeometry x="32.90999999999997" width="217.23" height="40" as="geometry" />
        </mxCell>
        <mxCell id="AIP2rtYdTXtsvyKJKe4--10" value="&lt;b&gt;&lt;font style=&quot;font-size: 14px;&quot;&gt;3&lt;/font&gt;&lt;/b&gt;" style="text;html=1;strokeColor=none;fillColor=#dae8fc;align=center;verticalAlign=middle;whiteSpace=wrap;rounded=0;" parent="THO80avu8P2htPNswEXX-18" vertex="1">
          <mxGeometry y="6.25" width="26.33" height="27.083333333333336" as="geometry" />
        </mxCell>
        <mxCell id="THO80avu8P2htPNswEXX-19" value="" style="group" parent="Rma2AlwZcZ3yD9oSs5zd-30" vertex="1" connectable="0">
          <mxGeometry x="6.089999999999918" y="571.73" width="248.83000000000004" height="54.549999999999955" as="geometry" />
        </mxCell>
        <mxCell id="AIP2rtYdTXtsvyKJKe4--3" value="&lt;div style=&quot;text-align: justify;&quot;&gt;&lt;span style=&quot;background-color: initial;&quot;&gt;General infrastructure of the dockerised application containing&amp;nbsp; the executable files and data access.&lt;/span&gt;&lt;/div&gt;" style="text;html=1;strokeColor=none;fillColor=none;align=left;verticalAlign=middle;whiteSpace=wrap;rounded=0;" parent="THO80avu8P2htPNswEXX-19" vertex="1">
          <mxGeometry x="35.73000000000002" width="213.1" height="54.55" as="geometry" />
        </mxCell>
        <mxCell id="AIP2rtYdTXtsvyKJKe4--9" value="&lt;b&gt;&lt;font style=&quot;font-size: 14px;&quot;&gt;5&lt;/font&gt;&lt;/b&gt;" style="text;html=1;strokeColor=none;fillColor=#dae8fc;align=center;verticalAlign=middle;whiteSpace=wrap;rounded=0;" parent="THO80avu8P2htPNswEXX-19" vertex="1">
          <mxGeometry width="28.83" height="24.55" as="geometry" />
        </mxCell>
        <mxCell id="Rma2AlwZcZ3yD9oSs5zd-25" value="" style="group" parent="Rma2AlwZcZ3yD9oSs5zd-30" vertex="1" connectable="0">
          <mxGeometry x="10" y="389" width="250" height="161" as="geometry" />
        </mxCell>
        <mxCell id="AIP2rtYdTXtsvyKJKe4--4" value="&lt;div style=&quot;text-align: justify;&quot;&gt;&lt;span style=&quot;background-color: initial;&quot;&gt;The different docker containers encapsulating the different tools/ applications available within Cardio-verse and being orchestrated through Docker-compose.&amp;nbsp;&lt;/span&gt;&lt;/div&gt;&lt;ul&gt;&lt;li style=&quot;text-align: justify;&quot;&gt;Points I to III shows a possible path for a use-case starting from raw DICOM images going up to conducting various bioinformatics visualisations.&lt;span style=&quot;white-space: pre;&quot;&gt; &lt;/span&gt;&lt;/li&gt;&lt;/ul&gt;" style="text;html=1;strokeColor=none;fillColor=none;align=left;verticalAlign=middle;whiteSpace=wrap;rounded=0;" parent="Rma2AlwZcZ3yD9oSs5zd-25" vertex="1">
          <mxGeometry x="32.89473684210532" width="217.10526315789474" height="160.99999999999997" as="geometry" />
        </mxCell>
        <mxCell id="AIP2rtYdTXtsvyKJKe4--8" value="&lt;b&gt;&lt;font style=&quot;font-size: 14px;&quot;&gt;4&lt;/font&gt;&lt;/b&gt;" style="text;html=1;strokeColor=none;fillColor=#dae8fc;align=center;verticalAlign=middle;whiteSpace=wrap;rounded=0;" parent="Rma2AlwZcZ3yD9oSs5zd-25" vertex="1">
          <mxGeometry y="0.12000000000000455" width="26.48" height="29.88" as="geometry" />
        </mxCell>
        <mxCell id="X8UQ3ca7zE-rwW-CTGad-3" value="User Interface" style="text;html=1;strokeColor=none;fillColor=none;align=center;verticalAlign=middle;whiteSpace=wrap;rounded=0;" parent="1" vertex="1">
          <mxGeometry x="1420" y="680.88" width="72" height="30" as="geometry" />
        </mxCell>
        <mxCell id="X8UQ3ca7zE-rwW-CTGad-9" style="edgeStyle=orthogonalEdgeStyle;rounded=0;orthogonalLoop=1;jettySize=auto;html=1;exitX=0.5;exitY=1;exitDx=0;exitDy=0;entryX=0;entryY=0.5;entryDx=0;entryDy=0;fillColor=#dae8fc;strokeColor=#6c8ebf;strokeWidth=2;dashed=1;" parent="1" source="X8UQ3ca7zE-rwW-CTGad-10" target="X8UQ3ca7zE-rwW-CTGad-11" edge="1">
          <mxGeometry relative="1" as="geometry" />
        </mxCell>
        <mxCell id="X8UQ3ca7zE-rwW-CTGad-10" value="Image Segmentation" style="shape=process;whiteSpace=wrap;html=1;backgroundOutline=1;fillColor=#ffcccc;strokeColor=#36393d;" parent="1" vertex="1">
          <mxGeometry x="1559" y="470" width="120" height="60" as="geometry" />
        </mxCell>
        <mxCell id="X8UQ3ca7zE-rwW-CTGad-11" value="Outcome Predictor" style="shape=process;whiteSpace=wrap;html=1;backgroundOutline=1;fillColor=#ffe6cc;strokeColor=#d79b00;" parent="1" vertex="1">
          <mxGeometry x="1888" y="660" width="120" height="60" as="geometry" />
        </mxCell>
        <mxCell id="X8UQ3ca7zE-rwW-CTGad-12" style="edgeStyle=orthogonalEdgeStyle;rounded=0;orthogonalLoop=1;jettySize=auto;html=1;exitX=1;exitY=0.75;exitDx=0;exitDy=0;entryX=0.25;entryY=0;entryDx=0;entryDy=0;fillColor=#dae8fc;strokeColor=#6c8ebf;strokeWidth=2;dashed=1;" parent="1" source="X8UQ3ca7zE-rwW-CTGad-14" target="X8UQ3ca7zE-rwW-CTGad-11" edge="1">
          <mxGeometry relative="1" as="geometry" />
        </mxCell>
        <mxCell id="X8UQ3ca7zE-rwW-CTGad-13" style="edgeStyle=orthogonalEdgeStyle;rounded=0;orthogonalLoop=1;jettySize=auto;html=1;exitX=1;exitY=0.25;exitDx=0;exitDy=0;entryX=0.017;entryY=0.833;entryDx=0;entryDy=0;entryPerimeter=0;fillColor=#ffe6cc;strokeColor=#d79b00;strokeWidth=2;dashed=1;" parent="1" source="X8UQ3ca7zE-rwW-CTGad-14" target="X8UQ3ca7zE-rwW-CTGad-22" edge="1">
          <mxGeometry relative="1" as="geometry">
            <mxPoint x="2020" y="350" as="targetPoint" />
            <Array as="points">
              <mxPoint x="1910" y="545" />
              <mxPoint x="1910" y="400" />
              <mxPoint x="1980" y="400" />
              <mxPoint x="1980" y="350" />
            </Array>
          </mxGeometry>
        </mxCell>
        <mxCell id="X8UQ3ca7zE-rwW-CTGad-14" value="3D Mesh Models" style="shape=process;whiteSpace=wrap;html=1;backgroundOutline=1;fillColor=#eeeeee;strokeColor=#36393d;" parent="1" vertex="1">
          <mxGeometry x="1748" y="530" width="120" height="60" as="geometry" />
        </mxCell>
        <mxCell id="X8UQ3ca7zE-rwW-CTGad-15" style="edgeStyle=orthogonalEdgeStyle;rounded=0;orthogonalLoop=1;jettySize=auto;html=1;exitX=1;exitY=0.75;exitDx=0;exitDy=0;entryX=0.45;entryY=-0.05;entryDx=0;entryDy=0;entryPerimeter=0;fillColor=#dae8fc;strokeColor=#6c8ebf;strokeWidth=2;dashed=1;" parent="1" source="X8UQ3ca7zE-rwW-CTGad-17" target="X8UQ3ca7zE-rwW-CTGad-11" edge="1">
          <mxGeometry relative="1" as="geometry" />
        </mxCell>
        <mxCell id="X8UQ3ca7zE-rwW-CTGad-16" style="edgeStyle=orthogonalEdgeStyle;rounded=0;orthogonalLoop=1;jettySize=auto;html=1;exitX=1;exitY=0.5;exitDx=0;exitDy=0;entryX=0;entryY=0.25;entryDx=0;entryDy=0;fillColor=#e1d5e7;strokeColor=#9673a6;strokeWidth=2;dashed=1;" parent="1" source="X8UQ3ca7zE-rwW-CTGad-17" target="X8UQ3ca7zE-rwW-CTGad-21" edge="1">
          <mxGeometry relative="1" as="geometry">
            <Array as="points">
              <mxPoint x="1960" y="470" />
              <mxPoint x="1960" y="545" />
            </Array>
          </mxGeometry>
        </mxCell>
        <mxCell id="X8UQ3ca7zE-rwW-CTGad-17" value="UKB Co-variates on RAP" style="shape=process;whiteSpace=wrap;html=1;backgroundOutline=1;fillColor=#d5e8d4;strokeColor=#82b366;" parent="1" vertex="1">
          <mxGeometry x="1748" y="440" width="120" height="60" as="geometry" />
        </mxCell>
        <mxCell id="X8UQ3ca7zE-rwW-CTGad-18" style="edgeStyle=orthogonalEdgeStyle;rounded=0;orthogonalLoop=1;jettySize=auto;html=1;exitX=1;exitY=0.5;exitDx=0;exitDy=0;entryX=0;entryY=0.5;entryDx=0;entryDy=0;fillColor=#ffe6cc;strokeColor=#d79b00;strokeWidth=2;dashed=1;" parent="1" source="X8UQ3ca7zE-rwW-CTGad-20" target="X8UQ3ca7zE-rwW-CTGad-22" edge="1">
          <mxGeometry relative="1" as="geometry" />
        </mxCell>
        <mxCell id="X8UQ3ca7zE-rwW-CTGad-19" style="edgeStyle=orthogonalEdgeStyle;rounded=0;orthogonalLoop=1;jettySize=auto;html=1;exitX=0.5;exitY=0;exitDx=0;exitDy=0;entryX=0;entryY=0.25;entryDx=0;entryDy=0;fillColor=#d5e8d4;strokeColor=#82b366;strokeWidth=2;dashed=1;" parent="1" source="X8UQ3ca7zE-rwW-CTGad-10" target="X8UQ3ca7zE-rwW-CTGad-22" edge="1">
          <mxGeometry relative="1" as="geometry">
            <mxPoint x="2020" y="290" as="targetPoint" />
            <Array as="points">
              <mxPoint x="1618" y="315" />
            </Array>
          </mxGeometry>
        </mxCell>
        <mxCell id="X8UQ3ca7zE-rwW-CTGad-20" value="Genotypes" style="shape=process;whiteSpace=wrap;html=1;backgroundOutline=1;fillColor=#e1d5e7;strokeColor=#9673a6;" parent="1" vertex="1">
          <mxGeometry x="1748" y="350" width="120" height="60" as="geometry" />
        </mxCell>
        <mxCell id="X8UQ3ca7zE-rwW-CTGad-21" value="Bioinformatics Visualisations" style="shape=process;whiteSpace=wrap;html=1;backgroundOutline=1;fillColor=#d0cee2;strokeColor=#56517e;" parent="1" vertex="1">
          <mxGeometry x="2028" y="530" width="120" height="60" as="geometry" />
        </mxCell>
        <mxCell id="X8UQ3ca7zE-rwW-CTGad-22" value="GWAS" style="shape=process;whiteSpace=wrap;html=1;backgroundOutline=1;fillColor=#bac8d3;strokeColor=#23445d;" parent="1" vertex="1">
          <mxGeometry x="2040" y="300" width="120" height="60" as="geometry" />
        </mxCell>
        <mxCell id="X8UQ3ca7zE-rwW-CTGad-23" value="" style="endArrow=classic;html=1;rounded=0;exitX=1;exitY=0.5;exitDx=0;exitDy=0;entryX=0;entryY=0.5;entryDx=0;entryDy=0;fillColor=#bac8d3;strokeColor=#23445d;strokeWidth=2;" parent="1" source="X8UQ3ca7zE-rwW-CTGad-10" target="X8UQ3ca7zE-rwW-CTGad-14" edge="1">
          <mxGeometry width="50" height="50" relative="1" as="geometry">
            <mxPoint x="1710" y="660" as="sourcePoint" />
            <mxPoint x="1760" y="610" as="targetPoint" />
            <Array as="points">
              <mxPoint x="1720" y="500" />
              <mxPoint x="1720" y="560" />
            </Array>
          </mxGeometry>
        </mxCell>
        <mxCell id="X8UQ3ca7zE-rwW-CTGad-24" value="" style="endArrow=classic;html=1;rounded=0;exitX=1;exitY=0.5;exitDx=0;exitDy=0;entryX=0;entryY=0.5;entryDx=0;entryDy=0;fillColor=#e1d5e7;strokeColor=#9673a6;strokeWidth=2;" parent="1" target="X8UQ3ca7zE-rwW-CTGad-21" edge="1">
          <mxGeometry width="50" height="50" relative="1" as="geometry">
            <mxPoint x="1868" y="559.5" as="sourcePoint" />
            <mxPoint x="1938" y="559.5" as="targetPoint" />
          </mxGeometry>
        </mxCell>
        <mxCell id="X8UQ3ca7zE-rwW-CTGad-25" style="edgeStyle=orthogonalEdgeStyle;rounded=0;orthogonalLoop=1;jettySize=auto;html=1;exitX=1;exitY=0.5;exitDx=0;exitDy=0;entryX=0.25;entryY=1;entryDx=0;entryDy=0;fillColor=#ffe6cc;strokeColor=#d79b00;strokeWidth=2;dashed=1;" parent="1" target="X8UQ3ca7zE-rwW-CTGad-22" edge="1">
          <mxGeometry relative="1" as="geometry">
            <mxPoint x="1868" y="455" as="sourcePoint" />
            <mxPoint x="2070" y="370" as="targetPoint" />
            <Array as="points">
              <mxPoint x="2070" y="455" />
            </Array>
          </mxGeometry>
        </mxCell>
        <mxCell id="X8UQ3ca7zE-rwW-CTGad-26" value="API Proxy" style="rounded=1;whiteSpace=wrap;html=1;fillColor=#cce5ff;strokeColor=#36393d;" parent="1" vertex="1">
          <mxGeometry x="1476" y="446" width="54" height="108" as="geometry" />
        </mxCell>
        <mxCell id="X8UQ3ca7zE-rwW-CTGad-29" value="" style="endArrow=classic;html=1;rounded=0;entryX=0;entryY=0.603;entryDx=0;entryDy=0;strokeWidth=2;entryPerimeter=0;" parent="1" edge="1">
          <mxGeometry width="50" height="50" relative="1" as="geometry">
            <mxPoint x="1406" y="500" as="sourcePoint" />
            <mxPoint x="1476" y="500.4999999999998" as="targetPoint" />
          </mxGeometry>
        </mxCell>
        <mxCell id="Rma2AlwZcZ3yD9oSs5zd-27" value="" style="shape=image;verticalLabelPosition=bottom;labelBackgroundColor=default;verticalAlign=top;aspect=fixed;imageAspect=0;image=data:image/png,iVBORw0KGgoAAAANSUhEUgAAAWMAAACOCAMAAADTsZk7AAABWVBMVEX///+6ydkAAACImKmctM900P8qt/8AgrMAhbW9zNzA0OA5TVTB0eEAhrU0SVAAibcrQkp41/9bbHLn8fYruv90gIX5+fkKTniGlqctREvx8fGxv84rvf8lPka/2eaiyNygqKvLy8untcPe3t5Mn8MgICA0NDS+vr6OmqaOn7HO09V4ss96enrBwcGTk5NaWlpoaGiampqovNN52v+Ghobo6OhbYmpVVVV9h5GqqqpPVVs9PT1wcHAOWYTa2tp/f3+DjpKbp7QISHKQw9kAeq/V5e6bpKcXFxdDSE4oKi1haHBpu+AjlMZGWWBAR04IOFOAttEvmL8AAAsTEA1sd4F1h5qTqcIlGhMgSlpTlbNHfJUuX3QyKCM5bIJrv+UEJjMekckAEh8OYoclqOYXdZ4AN1AeLzYAERwVIScQM0EbQ1UbUm1Oi6QAHzM1O0ISHSEAHytnd4oAAB1scEQ2AAAcU0lEQVR4nO2d+0Max/bAYUwKuyyCr42worK8VVQSwQUUQxLlYTUxrL1t0qR5NG1y25D2+///8D1nZmd3FhBJY68JeG7byz6Fz549c86ZMzMez7ctG6Tl5SJnO9Hr/j7jKB1iyjZkUrvurzOWQkhWsghL2e3r/jZjKSohOmcsm5nr/jrjKYRotjluF6/724ynCIwl84bxvyIpgXE9cd3fZjxEVVXX9gapc3vs1crX9KXGRIrx8sHebrqaSrXS6erWxmYmQWHHHb8CHIsbY/FPpVjeS5MBsluIq550SbH9Y6l93V/125RogfNNVUumsWAYhlkqVTvWzq3tlOwosn7jIX++ZKqUZNPM6l5FUWQm8EnR69lKix2sK7aLbOxc9zf+1iSfQoYVQ1NkyVZWrrOSJMu6SZ9BK8sPK6c37d7nSAbVtGVospWQ0O7e1XpBy5JutkTKMrkJ9kYWdYOi8/KMz91bVO56ezErXgOV+VRXmEkm8ev+6t+KxNEGGLKdU7vFpZcx6q6cRV1ue1GV5ewN5NFkE+0wENV6EfcrMjPOBjoadVRlxbyBPIpsA7BzAemtSxiD+molVGW0ykrlBvKlom6BJf5BsA13BcaDEaP+ZsEL6WoAWereNHyXyS6wcunt5WrMVLlNSEeXwSw3yI0LN1S2RMQ9jIcgRrNsgL3IKl5JI2Tzun/G1yw7LsRuxsMRg72odyhkuX4DeYhkCEnd6mF8kW88wF7oCFlGD+4G8kUSBUY/iIwpOgjx7o5AmEJugA8HkME233gXg2WbdP6+1cf4M4Rqsi55ZfDlbkoBBgmEd6cuxKNprygQTZMUwu6Slnr5X5w8aZDOD1+kxl4aTZMKcy52r/v3fIUCDd7fX6jGIEobUx03zsVgSZPWlyMGyGnS0cBqVG7avT4p96rxP0NMTXJFkfSpFkld92/62qTqdo3/KWJmLXQpN3VOyE3nk0uKhJgjpX8uF2jvKvLiVA6sxU1hiygHoHwO439oix1Frk+BNMjWdf+sr0rSpKvYecwvQkwtcjs3NZW7CfdcUqMeF4U8YuA8RCACSedQkQm5qblwpCzUEn+xKBBKLwLiXOnGIguyS1Ly5fBGFAkCEBP1eHGSXYvoWs09QqaBEfCViUY6JTQWudNJ9ZETm/+hdVQ7TqVlAszxlZkKUOQUaVKDbE5iq6fGd/5Dfvzp+Dj57EdCqmVLm+NEKCX+cpGbpJWzjMWEZS2imW1Cnidvz8zchn9njp9j7SXVs8xVNnnAuEIaiHgqBx7Gdf/q/6XELcC3bZl5+VOMkHTG4ykIQzuugrFJOotTlmcxMXnk4ubP5MXx7Xu33TIz8/LPT2QDorzW5eQ+g7FByPnUhBnkIvllfWbmdp/M3Dt+8RQY75DWFZoKytigjM/JxFRbxMnT2HGvEoMW//T+w6vvoVnau3LGHabHU6kJafRqqe7r/Y/kRxdlVOFPb94uLSHjHZK6UsYmtxW5Ftm77p//v5AEqdfJ/v6d1+S5TXnm9k+xp7/OL3333Twy3qQ9nVfKeJEznoSUhUoMBRg/AMqoyzOU8LPOu++RsM24c6V+Bfhui9x5m4T8ZplgtvEOyP4+WIwXYCSeEzAS8999ZzEuePJX6x9LLSsGQcaT0D9drShejTJGyqDLv73zL3HCwPgtMK5dbZznJVYsjbZiAhirmInQyIM7dx7s34H/7T9+4wBmelz2RFn6+IpEyrIkPTJOTUKbV6QDbjuPLcbwf34RMTLOYI/pFebdsN7Nct3Adzu4bgL/vtSoFWgg4zuU8WM34yXKGBq9K0Ps9aasdAVNChWum0C/jD7z0WiJgATqsdR6d4fLY5/IeOntLxjtXmXiDVP0p8xUYCz91Q1diJ7ERv1OmcjsKJSLaI/l5sd9m7Ggx0vzbwg1mCohpasyFkrF6gZh3aZfXW9TPhZZGPHU2enY2ginRUlbwaDgDoO8LzBemv+VkEaenrZJyBUh9moN0rDUOHdKOv+Yxb8l+fD06IzDozD27BI0Ak3yeN9tK+aXgHCKvzU1YZKrLxMM8koW46nGV9jk/QuMyxDn4YQ/5Olj1uZRxvNL/l+gPXKszdZVpYU0YiWPmTnOi9/lcGVlZXmObyyvrBxan+kUL3P2QdU5ROd+geuWVfdtDu2tuWXxrnRzeZgV/RcYqymCEyBIi6fkLwxCkPH80qt3hOyI7WvtilxkpU06FcdUEOFvPAz5qIQotjP2eYV+x0ePltUkbPr9D/FEP3zyJfG0uUePDufoqcGH1m2W2ZVnywxp0mfdlW4ess3QkwEgigk6f4yLcTFR7H0e0Zrdo2wzdn5FdC2+1ueXqOAzlDRF1nLnKfIRGS8tfQ86fNBz5h5pXQFjWknP1XiKkA3ne5z5g77kk/Uz3yPQuWVfyHf2JOkP+dbxmM8P5M7W12H7oSf5KLT+JBQMJhEhHMHLkj52psezAp/YNkKfg5uerdO7soO4uR7y+ZM9GNYWIrFYLDwb98Rtxnyf6GbkZ2Mos3mBcfEkZmXB18wwvUJ8OxNHJ+Hp2SbOk6BruRy8u388Dob+AufqvLfyAVwL88tdC6UFt+HW2OVVJIP+daYyKyqgC4VQD+fOQr4VZBwKhejbnwwFHz6iuv0k6Fv20BPpETwTrziEHWgX5kJ0ez3IrvOoSBye3BndXPH7XZqs3o9NB1CmYwurEcZY2DfLu+ijC7gP/4kd2YyLJ9PTpnPFtOsKz1E4DHtiamYL56spneemTsnT3+FlXszlSr2jYgbXCkkK+3c0wQYvzRHnOqRq3x3UT1Ct9aDfetUBIWXsY6gO/Uw/QULBdcrYOjIXDJ3Rh+CceYYnPXTu6jlj/Clk35yzX50NB6bDgZMA4EBEyDjq2seQFU8igUjk5OQkMh2Z5YwBcYB61PwuJ2E4y7pCXYgFpiMR6g0Wy4i5MpUzT0/NKVpg0pdIqJJur7WQNGOvSVJtfTQzgpaC2JbCFYCchYLCj2a8UKi6qs4DCIWC9nM4o4z5metId85vn5kM+Q+BsaCvy47RVkP+FefAQjgQmc1H1Si86wGL8UIkAJYD9sVh3zSLNWYjgdhCTYXzFk7yFuMoIj6y7kKvUMHG8CvuxwKRk0zCfg8yaTCVuRxXs0qv6Y42qAsiqmU2E43SabBsMyLhpEIXQk7Z2aCenNucQ9WDL3xwnXPxAyXVF+REkkHOcCUYRMZOW+cHbHA6P3MFt5PB0IrdaMHzsp9j0s//AoRrsUD4vvV5NcYYi/uOYoHYKjsWXhWJzE5H4rMccR6OHvE7TrMrcN+Cu9EsC1o29XffELreiFpagOejNiBQ8WwzyLJmmJWSoQ2mrDRFS2GKg/QO/UHnNzNcTEBR12mbZzPm5wFD1ubxW/jgaTwMCtvghIB59geTD9m+ZCiUXAdJJpPrZ8LfA3s6a28chSnj3n0BIAVvvdurm6XmN1bgwO/zA8A4jKeWxLtYUkw1HMb9UXvZFe3JBn0Fojvo5KWAvuQ1ytEDOkvLIAuNiFv2M1wkYvxx6BMNJzDmpKiZEBn7exlzT3iOMfa5ttEH9Pv9PtrEAWMfF/D9+F9LgLI5T1sFugueGrz3CWFfIJb31MC0umcCRMaBGCMLRyP8KCj+dAAuT4AN6s8VqFX7XT4f0Cu/Q5qOimqi65HvKpKOfcxo1+MHlX5NlgEx744GNW6Sjhg2+F2GM2jr8eWMe/X4UNxG1itgqYP+M2qhlx2xo5R8zKVsR+hXZMI9+yJHuM9040DGFmLhCpUa4YRrn0uK7znjvwdVPmw7DpxkiMYkChpOmUe3WqCfW70Bi+StAGKD33zKcGfcwB4LboXQOFHTPJQxfxpgih8yIyxs87us41MD1kK7astq2HnJGZiFi/Ydua8ExtP8tPsR6woVWrzIbNS688DU7SZ/m0sDK3jSOHSf6WVJbBRVopvCdrEnhSRJXfAOHcRTrZ7SY+qjcZlz/IgVhDOMcYhvU1N86Gw/cUwzyBm0lcIDEKWHZ34Az0H7PJSxHUxzxlFwPsIWCrhidcAf9KxZr3Pu08CgPtriXrJSEU9Qiebqxa+6UkiS1iIdcm4jhii66r4vEBIMMvW7qJyh7g1l7Le+BvPq4L9sW3U9Nc86RHZzftF5sSXjTlCshkE3+/YBQHrAJWgruClfZVegC83Nx4CnwiRv6fHfF2TEirxLRGmqrt1112uxIcz371V0cNoaAmLwKXrmkVVZXIYyp9KAjH5+SP2N4YyZyoM1QPNrxzLr9KEJ/vBDejfbIjlPFFqrgPAKgtN75FmLUU9C2LcK+6ZP3HpH/QqrVVujd1mb5q4cykWMy16GoReCLXFyyvy0kthkFk6zLj9ko+0wVnCeG8ejoD4FM0Rqrby5sXFQyCQ8h8GQL7l8uLySxHzFOoTEK4fLST9VxqGMn/jO6JnBM+uEIG6fsXyGzweO2+Hyw1DIP8cOhnB7ZZ3lL9iXCIhubz4ciK3RfQ6ePPU83OdZjKeZB0H9kfBRPmI5xsMZLyjaIvZQXFy/k2FrUkjiJKWgxoaLcdUuvJekEg0hBUmxlGZ+t1UxDcNsn0JzuKlhUggFGXuegHfl8wV9SdxQH3Ed95z5bMY+HzL2Ha7QtJvvzGrP1umVVl7ujPtqLE8Bmuz3i3k4KuBqRXjjkwgwlxZc4kje3hfo22cxnr4f4ZE2RCigxK4zLmBcrkuSvgiaNqTjkE/Q7WR01HRJyYq2ImpHK7KOE/iaOQFxl3aUlpumxiebleptQvZWniTPkjxgmHsIG+sW2pUV7hAsr9i+2soKY+w5xOuc9o1uPjnkZ9GQwz46t5LEbSG/TFUwEDmiPzgfsJqx6KB9+IHuUzNHRco4XIOAcPoEN1TqLQfWMGK+XxvGuCRjWiHXHVpOWaVeg1TnxcO1TkWWNLEkfpMnQpV6yuWzTeEg3j108QxJsNiSrJn/pE6WMv5iAUsbCAcWju6fhG1zuhYW963SfWAzYJ95f+EkFsMGjuaEViEwPEHwiQhCXri/EIiFT+j5gxnvUadBMoaXt0dZD6qkt1IbhcJBGue78ipdx9mLczXuM8XYTwpmKFHpi7cVrfv5BYZXw9gTn45g6wXv+rRtTuOR/n0ZmrwEYaEyy22CkWAxdg0eAB6FB8FCj4GM46xURbqsRz7PevckRTfaJdOaSFqza+Iz3ImWqSkW7QS4FACyOKgkRlLapPqZQxeuiLGnuBAORyKRcMysiftiuC+84DTuCTPGzqMJ4oVYDA+tMq0G3TsK4BWxyH1macsxoQHkwiIH2bx0JMy2ZQtwNmk+Ibqkf9rN1BK1cuqplevEdLHbFOfOEbHKQ21ZUWTBjwat/8wxONjX9HlXXCTFzNHRUSbRu6/Quy+RObp/lGf7oqtMq+L3eeulxuFohrtk6upqn85ssghYu7ywJDqom1qSsqXup1Ypa3FTAHF3sQcx1sLuadwGV5ptZx5l+lDShc+puFCd1vDbkMRTeUQ19nh2Pg1KrUmyAqrJPQqjx07g+A9EHG/LcKJXN8nvPz5LPntfcmyzUiEfnnc3vrrCliuTrUVpJGuMEr20Ihk7PUqDEHuqurduNsnTF8czMzNYUS7mQgk5fiZ0pY6Z1JgaX+ZUWLJ12ehepeH0efDwjvoNcfIz+e+z45f3+EiqmZev7ZQpKv/3/rEtmN1l1ljpjqRF5ebwPjwwxqVexJgC2fvw/Kfje/fcI9VmPlTtNS4IeftoXBnXrLGkmrt25yJJtIb2RoOloMWZEDKiUMQYe6+R347vDRgK+Bf35kCR//CNq6046CqWqRjp9GJjKGO52cpN5XRdo6LXwaOgoWOc3Hn6258ve0dc3ntpOyoa+fTm66uCuxqxfiTAGen0xNNhjCW9kdO9zuossmYVc+cJG3TyIulgnplJPn//S8Neq4W8HlPGGT7svDFaQJvpDmOsNA2v0CaC5bB8FWCMY3sefCSf/qQD4GfuvXzWIb++nedTZGDgMqaDT/esukxtxHLVvZLV5rFQr8fJ0F2dprJud/PHWaXz/v7+49fk2TEAbuBItaXvlv5rGXgckjOmg6gJS6qDxo00xw8P9GRv1jANI1t3DZKUDNF7lusdO+G/Zg0FfEAxfyR/vXnFRqrN+/iLpI0r46JV+irVR9PjTSJTM2u2dQnF62Isi86znBUyPUXymA0EpP/Zf/CrPdjyLW/1pMbXN0jkSiRjZSNBj0dxnPL4SCTJbA8uCZIE4rIh3lBljK0Rl+IInyVe4Cy3xlSPd4jG7XH18rPjWF4o693s5RWbiunqS0XG+zbjfWGEz9JrqwsQHIuvcEDZFciWXRCRujyUpuOnlWxLu3z4gtLuiWjIO5sx/CPq8e/W0CmlMqbTvqUJz5a1L31Ty7gGhWK0+hYndIkGDoeiLPT2C6beYXtnM3b0eJ6PZVUqYzrAl/CwDdNlwwdabtOV3bJERNyPWzI03Ww2GtXdjYxYRrBBHqNXwZRZYAxtnlWSMa6MVdKwM1+Vod1q8TRqMTwJwTuTZF3vZYzT+5N0s9ltYH1yxrY/6jb5/fH+vmUwHr+yRwP6eBAC9ngsGUdJx26+tCHzuUZ3CGngOirdttPcyXrF9tUU7hxkSUX3yoose/VsBS7atCnjUwLK1F48/nXeGm/5/Qe7nzU9nm1elBDbCcNFD3YHVgmpuD5hU6PrATntnWKWHeBKibvZWd4fIkmKht3TjpnPAOV3+7bvNr/09g1WLfM7dsbTd1PF6m36mm/2GeU10GHSoe6a3HUGkknN4oYDXGaM5RatobXNtIzrjqWdLqT4LiEfMdz7FaK8V38QsrdBrAeFDcJ4TvqWEochyHoTjWjZGf8XjW82aIG81+pVtYeoy6e1+Kkw8TRNVEj1Dr1bva7zHlHZ23bFyMXNDpiMB0FU4Z8LqvMFMF8xngvXb7uGkUpSFimTRnp3a2N7a5etyJ22CKMl4CWDcrvgSf9gT6AuZ5u08MJkJXH6Zm3T4IOecHU3MU5XM6DMrwk5QK0t2BX6SntcZ+wt9wwMk6R6u0Uc6aRN3S6eAlXjjLUUBH13+Sz1kh6vMvJWxgjiaHWnbaU5pb5KoMzudpm+K2vO4D+pMa5dptG+WUAkRdLqhtFum6ZR1zVZKDYBk9lULPO76dk9sdezkNuebWQlGczRAIVvJTzFdJ1XvJwO5gd/ndcr4xQi45kSotOhe/uE5ob708PAuMXXPk9E+QI4oMh6wbND6Wpp1nFVN7poH3Z5577UHeSXFYkzlgcikMbok818W1LEpVH6KQ8UXDdMsz54MmSRM8ZhOGXaPyJnS+i6KSVNh6ZuU7XG74HRGDDzSlxAjF7FeGYrUHZGns9G0buW+YQX27PHF4e8CyEi7d6ma6LXm3CGYcra1CKEIHaTClf05PWie/B0nXt3SWdc1dhDR9ZVvJdn0tiS3IwZEFMbDmPvFnrazLJKmlkqZWWvlJvKLWLzyaO4ksvcJvaIODPGuC92quI40LoylDKEbFiLWWhaFch1AjaGr+Ek6digbfM+I1bRKeG6QbncYsta/QKMgaXI0Vr5AGvshVJkDDFT4z2z9x79xRdRhphYrlcIVbQN0mJV3qTMGYM5zqIKxt3z7Uk6rzu2upKUJtna3qqmO8wnNDXHYZFxXoDxjD8cyeDPLumuomCLr6xo2QpwaVC/oMBjb7JrLdZ7Fz02+ppX3cOldV6JdWo1e3XL5W50S4brTymIeKQipW9asAGis7KAzkqWyIri1bOlFA31WMiAD4PaVwX38jBPZiOd8nStbls0e6pjHmU0Upqma5KiiD43mCFMHI2ra+yS4gZTsoqRresg9axRSluat23nauLWXGS49hIwZvmKu+dsMuNt18B/S49zXW4s5FNwPfrskYzOSmp8C4/domb2SL9UdzKu8dCWY4EpuikKCQLq8wY9GAUvos0pSpxxy87Bl/onlpS92JRuj7stBkmUN7a3tw/KiWj+YDfl4N0q5Ht8VpUHvxrh6wyBwfjBarAQcsvKH1O/Ahk37L59o4cxOCttIkzYN8ZSFnJAmD2OFhOJtWJxYEQAXjHLCuFEVzRlrGHD97uVvIziLBbpuowTx+V4m2fXqBiuwSSyolOHeyz7PtxSA6PbNMAEg/3tXP7eVomVjAcNTCnMVNy69bddV5vB16BTynolOgMUHYZu+c1gXzhj2kWCZ1YL4+0VUwFHoaIzX0KWvUYVdXnYz05bjKlBRoeBMs4J2lhgLWXrtG2a58Z5ivCicLgEbQXwlXTzFB/F3vg7bB6K2BCTl1K2Zc8ZO1BaTg2iZZppIHIq1g1k9hybTpzl4WST6GBEwB3ErpX0TnwCVNjDZrzqmVbMa4DF2L4oPRO1kSngcrEZLdBL1nsyPvHyXtUCbfcAgnmpnL5HvNuFzAR4EkzUDumvXFO0JrmwSjVjt2DUQ7aTOuAz9C2UoBaLZSJMcih3dxO1WnFi6DLZHpjVlJTshR7Vrt2PjYO9hCValMqA1Sgg8rOnIUJ3byy79odLgjQcQyxGYLKGKaBqf0/8ppNrZukHoaKlSTruC6IbLsRwwRgniC+SHTuBLtdNoy62fQq2fWIpFYp6AOrNNZc2ekJnoCTBcxEG4yaQcKMuzHxTGdMu0aHCbaWkdVPlfAGdWoeyl/qvnQMe6amJAmbfhGq3BtlriZ2BWK5CdguZWrGW36EOXFu8oT722csBUuTd/tJ7pmHxTddoDkYZ3IAtEOb0NoWJYqUW2ai5rAVrLbk0TF009srpBAR0fZKx+EBswHcldHF4hyzVSx2BWtPVWSKlyRbNZ7omGzO69Ip0Oyu5ktFydgIWaOqXsmWOZXGEac01rB84aUa7CdI26l53Bl8+RU+i2CFiVb01dYjcm+2XtNFGWI6blJ0hTUL6NpOz9PLuXZYdtuaw6u8iSdPin2h6EOTec71PJ9AYe+z52tCyiu9xhu69a/c5XygNVpKtpvkUN9gvZZQq2GfVg1j7NJ4VmZdKjXdy9ozNi2MlwC0uFxFG382KKTZoQC7LmtHC+T+SJC3OY4NFhY2+easnReyso5wlu4InXGzpDuOLIMvC3Jm1alvRFn4mz47pWuu3n4G7YXdzy3JldwKDD0v27HwD1jcIyTY1bTqMLzIXKTENtEX+eubMTzFz+wXt5pbAfHjNzgT0c1woCSeCkLxdVzZh77cfbMgDl41VxNURyrHemSlmXgLlblbS29UJTFKIsu1EEJK35Sr6K/CqzMGKjLVTTX7uGnnev9r6zEuwGKnOSOsajbNEhQgCqLnyCXHyafFCi6xgQshux8pvvv/rp77l1sFi/PmeNPrHl0yYZAjh0XHfoPToFukuDmTcW3VS2F+a/2PAovY40cpvE9EpOlQKhFgBMhjYXhjwBFp/37p7q5cwHZkjOLyFP5a+W3pFTl4Oonz8Y89KZpMnBbb6mIQ1Z/3FOjgur3uuy4qVXcYCLZ3mlsWwrfwYF6+ffyMsai9Oy3T8HChPRt/dBZLpQOtlGiYZOGIjipRJqs3mW9G0rEGLMdylwomPS2yd2T/I8wG6fA99jJHm5xtbiW6y3NoFIwWK5aqVq2ykrCTcTk/uofh/fJnOt/8Fyj3T5IGx+Lh/ZxL7QERR4+XysI7i+Oaund9MbWf6abXseRKWXn0gLwTK94DwOxy8O+mMRxB1LZ6BBxEfXF+5+9ZZX33p7Qewy44Ov2Nr0n5ltuL/ASCT8O0vcEN4AAAAAElFTkSuQmCC;" parent="1" vertex="1">
          <mxGeometry x="1999" y="210" width="125" height="50" as="geometry" />
        </mxCell>
        <mxCell id="X8UQ3ca7zE-rwW-CTGad-35" value="" style="group" parent="1" vertex="1" connectable="0">
          <mxGeometry x="1340" y="620" width="80" height="50" as="geometry" />
        </mxCell>
        <mxCell id="X8UQ3ca7zE-rwW-CTGad-2" value="" style="rounded=0;whiteSpace=wrap;html=1;fillColor=none;" parent="X8UQ3ca7zE-rwW-CTGad-35" vertex="1">
          <mxGeometry width="80" height="50" as="geometry" />
        </mxCell>
        <mxCell id="iSJP6n-plgs5U3rNxnB9-77" value="CLI/ Node-graph UI" style="text;html=1;strokeColor=none;fillColor=none;align=center;verticalAlign=middle;whiteSpace=wrap;rounded=0;" parent="X8UQ3ca7zE-rwW-CTGad-35" vertex="1">
          <mxGeometry width="80" height="50" as="geometry" />
        </mxCell>
        <mxCell id="X8UQ3ca7zE-rwW-CTGad-1" style="edgeStyle=orthogonalEdgeStyle;rounded=0;orthogonalLoop=1;jettySize=auto;html=1;exitX=0.5;exitY=1;exitDx=0;exitDy=0;" parent="X8UQ3ca7zE-rwW-CTGad-35" source="iSJP6n-plgs5U3rNxnB9-77" target="iSJP6n-plgs5U3rNxnB9-77" edge="1">
          <mxGeometry relative="1" as="geometry" />
        </mxCell>
        <mxCell id="X8UQ3ca7zE-rwW-CTGad-36" value="" style="endArrow=classic;startArrow=classic;html=1;rounded=0;entryX=0;entryY=0.5;entryDx=0;entryDy=0;" parent="1" edge="1">
          <mxGeometry width="50" height="50" relative="1" as="geometry">
            <mxPoint x="1379" y="610" as="sourcePoint" />
            <mxPoint x="1378.54" y="549" as="targetPoint" />
          </mxGeometry>
        </mxCell>
      </root>
    </mxGraphModel>
  </diagram>
</mxfile>
